<?xml version="1.0" encoding="UTF-8"?>
<svg id="Layer_1" data-name="Layer 1" xmlns="http://www.w3.org/2000/svg" viewBox="0 0 512 512">
  <defs>
    <style>
      .cls-1 {
        fill: #fff;
      }
    </style>
  </defs>
  <g>
    <path class="cls-1" d="m53.82,492.47c-.62-12.51,5.48-19.47,13.61-24.43,10.55-6.42,14.49-15.63,14.25-27.64-.24-11.55-.4-23.12,0-34.68,1.57-46.25,55.26-89.71,88.79-105.2,13.9-6.42,26.54-6.24,39.81,1.14,9.93,5.52,20.21,10.45,30.64,14.92,11.15,4.78,16.93,13.35,18.79,24.98,4.79,29.89.56,56.95-20.4,80.67-30.11,34.08-64.23,60.69-109.82,68.21-24.99,4.12-50.15,1.56-75.65,2.03Z"/>
    <path class="cls-1" d="m298.38,318.68c-4.26-3.2-61.88-54-72.83-62.54-3.3-5.95,202.55-205.57,232.01-232.69,22.39-20.61,35.66-.54,27.19,14.71-12.7,22.85-172.29,262.59-186.37,280.52Z"/>
  </g>
  <path class="cls-1" d="m313.97,110.01c-40.3-20.49-86.54-22.31-133.7-5.28-23.11,8.35-41.08,19.27-50.89,25.94l-31.04-52.73-36.65,64.74-36.65,64.74,74.4-.63,74.4-.63-29.18-49.57c7.79-5.42,24.69-16.14,46.67-23.96,39.42-14.02,76.12-12.64,109.06,4.11,7.38,3.75,16.42.81,20.17-6.57,3.75-7.38.81-16.42-6.57-20.17Z"/>
  <circle class="cls-1" cx="457.64" cy="218.87" r="18.64"/>
  <circle class="cls-1" cx="455.1" cy="285.79" r="18.64"/>
  <circle class="cls-1" cx="422.91" cy="342.54" r="18.64"/>
  <circle class="cls-1" cx="367.01" cy="394.21" r="18.64"/>
</svg>