<?xml version="1.0" encoding="UTF-8"?>
<svg id="Layer_1" data-name="Layer 1" xmlns="http://www.w3.org/2000/svg" viewBox="0 0 512 512">
  <defs>
    <style>
      .cls-1 {
        fill: #fff;
      }
    </style>
  </defs>
  <path class="cls-1" d="m238.86,415.76c-8.7,9.49-43.07,43.89-54.11,54.93-7.15,7.15-12.49,8.58-20.43,2.3-3.63-2.87-12.62-11.89-15.87-15.21-27.68-28.25-55.38-56.48-82.86-84.93-15.62-15.62-14.16-19.34-6.11-27.39,13.35-13.35,49.19-46.09,59.58-56.47,7.34-7.34,11.52-4.46,19.77,3.78,33.84,30.55,67.99,63.12,97.41,98.15,11.79,12.31,10.92,15.81,2.64,24.85Z"/>
  <path class="cls-1" d="m481.55,173.08c-8.7,9.49-43.07,43.89-54.11,54.93-7.15,7.15-12.49,8.58-20.43,2.3-3.63-2.87-12.62-11.89-15.87-15.21-27.68-28.25-55.38-56.48-82.86-84.93-15.62-15.62-14.16-19.34-6.11-27.39,13.35-13.35,49.19-46.09,59.58-56.47,7.34-7.34,11.52-4.46,19.77,3.78,33.84,30.55,67.99,63.12,97.41,98.15,11.79,12.31,10.92,15.81,2.64,24.85Z"/>
  <path class="cls-1" d="m378.68,239.13c-5.37-4.98-81.27-82.79-92.1-92.83-6.3-5.84-11.55-9.04-16.74-4.99-11.58,9.04-102.77,93.03-110.32,100.57-9.89,9.89-12.64,17.02,2.06,31.72,4.6,4.6,65.57,67.18,90.37,94.9,16.67,18.64,23.45,18.26,42.44-2.01,13.94-14.88,27.87-29.89,42.23-44.42,13.71-13.87,29.17-26.08,41.95-40.75,15.55-17.87,15.09-28.33.13-42.2Zm-157.15,12.57c-7.73,7.58-20.14,7.46-27.71-.27-7.58-7.73-7.46-20.14.27-27.71,7.73-7.58,20.14-7.46,27.71.27,7.58,7.73,7.46,20.14-.27,27.71Zm41.15,41.95c-7.73,7.58-20.14,7.46-27.71-.27-7.58-7.73-7.46-20.14.27-27.71,7.73-7.58,20.14-7.46,27.71.27,7.58,7.73,7.46,20.14-.27,27.71Zm-20.43-89.72c-7.58-7.73-7.46-20.14.27-27.71,7.73-7.58,20.14-7.46,27.71.27,7.58,7.73,7.46,20.14-.27,27.71-7.73,7.58-20.14,7.46-27.71-.27Zm61.57,131.68c-7.73,7.58-20.14,7.46-27.71-.27-7.58-7.73-7.46-20.14.27-27.71,7.73-7.58,20.14-7.46,27.71.27,7.58,7.73,7.46,20.14-.27,27.71Zm7.29-89.46c-7.73,7.58-20.14,7.46-27.71-.27-7.58-7.73-7.46-20.14.27-27.71,7.73-7.58,20.14-7.46,27.71.27,7.58,7.73,7.46,20.14-.27,27.71Zm41.15,41.95c-7.73,7.58-20.14,7.46-27.71-.27-7.58-7.73-7.46-20.14.27-27.71,7.73-7.58,20.14-7.46,27.71.27,7.58,7.73,7.46,20.14-.27,27.71Z"/>
  <circle class="cls-1" cx="65.95" cy="264.35" r="16.09"/>
  <circle class="cls-1" cx="41.69" cy="205.97" r="16.09"/>
  <circle class="cls-1" cx="40.84" cy="144.84" r="16.09"/>
  <circle class="cls-1" cx="61.17" cy="93.31" r="16.09"/>
  <circle class="cls-1" cx="115.15" cy="68.59" r="16.09"/>
  <circle class="cls-1" cx="172.98" cy="68.75" r="16.09"/>
  <circle class="cls-1" cx="223.42" cy="92.62" r="16.09"/>
</svg>