<?xml version="1.0" encoding="UTF-8"?>
<svg id="Layer_1" data-name="Layer 1" xmlns="http://www.w3.org/2000/svg" viewBox="0 0 512 512">
  <defs>
    <style>
      .cls-1 {
        fill: #fff;
      }
    </style>
  </defs>
  <path class="cls-1" d="m186.02,150.64l78.32-78.89s31.23,32.02,50.05,46.78c22.01-23.51,43.11-46.07,64.23-68.62,6-6.4,11.85-12.96,18.06-19.14,15.68-15.61,34.85-15.28,54.51-11.7,2.86.52,5.63,2.46,8.09,4.24,15.33,11.08,41.85,34.15,30.71,69.19-2.8,8.8-16.03,18.08-25.26,26.95-19.7,18.92-39.96,37.25-59.78,56.05-5.49,5.21-12.27,11.94-16.76,16.93,13.23,14.83,45.74,46.31,45.74,46.31l-76.24,80.19-33.92-30.35s-180.46,177.62-196.05,191.82c-20.52,18.7-50.96,19.19-73.3,2.7-28.84-21.28-39.77-55.73-27.44-90.1,2.87-8,8.33-15.65,14.28-21.77,44.18-45.52,88.82-90.58,133.23-135.87,11.55-11.78,47.11-49.7,47.11-49.7l-35.58-35.01Zm60.4,59.92s-114.6,111.29-147.11,145.03c-12.5,12.97-25.14,25.81-37.43,38.98-7.82,8.39-11.11,18.59-8.89,30.16,3.34,17.44,14.28,30.91,28.87,37.28,4.37,1.91,9.58,1.84,14.58,0,18.04-6.62,72.02-65.25,85.62-79.29,11.81-12.2,116.52-125.13,116.52-125.13l-52.16-47.03Z"/>
</svg>