<?xml version="1.0" encoding="UTF-8"?>
<svg id="Layer_1" data-name="Layer 1" xmlns="http://www.w3.org/2000/svg" viewBox="0 0 512 512">
  <defs>
    <style>
      .cls-1 {
        fill: #fff;
      }
    </style>
  </defs>
  <path class="cls-1" d="m424.07,37.21l.76,74.52h-30.31v-56.75h-77.53c-2.03,7.8-.56,242.42-.56,242.42h50.57v24.08h-154v-24.08h53.11V56.24l-78.69-.59v56.07h-21.61s.07-11.98,0-16.35c-.25-15.21,0-58.16,0-58.16h258.24Z"/>
  <path class="cls-1" d="m509.45,406.18l-99.91-72.89v56.19h-237.02c-8.34,0-15.1,6.76-15.1,15.1s6.76,15.1,15.1,15.1h237.02v59.39l99.91-72.89Z"/>
  <path class="cls-1" d="m75.44,384.96l72.89-99.91h-56.19V48.04c0-8.34-6.76-15.1-15.1-15.1s-15.1,6.76-15.1,15.1v237.02H2.55l72.89,99.91Z"/>
</svg>