<?xml version="1.0" encoding="UTF-8"?>
<svg id="Layer_1" data-name="Layer 1" xmlns="http://www.w3.org/2000/svg" viewBox="0 0 512 512">
  <defs>
    <style>
      .cls-1 {
        fill: #fff;
      }
    </style>
  </defs>
  <path class="cls-1" d="m477.12,49.68c22.45,12.44,29.05,33.91,17.69,56.89-5.1.73-10.7,1.53-17.23,2.47-.39,3.8-1.1,7.55-1.1,11.3-.09,85.08.1,170.16-.3,255.23-.07,14.65,4.83,26.81,12.6,38.37,9.44,14.04,11.89,29.51,9.91,47.11h-46.02v-31.51c-7.28-6.36-14.69-5.76-21.77-5.6-29.4.66-58.83.96-88.19,2.52-77.65,4.13-155.19,2.4-232.66-3.82-12.35-.99-22.48,1.73-31.28,11.27-7.22,7.83-15.64,14.58-23.94,21.28-12.19,9.84-26.19,7.02-41.18,5.86-1.73-17.87-4.05-34.38,9.33-48.94,7.96-8.66,12.57-19.38,12.54-32.07-.21-87.04-.12-174.09-.14-261.14,0-1.47-.21-2.94-.36-5.05-1.54-1.23-3.28-2.86-5.25-4.13-15.17-9.8-21.2-25.84-16.43-43.26,2.49-9.11,9.27-12.13,17.35-13,17.07-1.84,33,2.62,46.24,13.22,10.72,8.58,21.69,10.93,34.87,10.23,98.31-5.23,196.68-3.69,295.03-1.78,7.69.15,15.38,1.18,23.05,2.05,9.97,1.14,17.78-1.88,23.65-10.63,5.59-8.34,13.51-13.79,23.59-16.86Zm-25.91,56.28c-14.66,5.15-23,14.81-32.35,23.09-19.62,17.4-39.36,34.65-59.12,51.88-20.51,17.88-41.24,35.51-61.58,53.59-5.3,4.71-9.5,10.71-14.96,16.98,5,7.28,8.45,14.61,13.9,19.74,8.45,7.95,18.43,14.19,27.46,21.55,10.09,8.22,20.57,16.14,29.55,25.52,14.18,14.8,28.25,29.47,45.13,41.24,11.48,8,22.2,17.18,33.01,26.14,5.36,4.45,10.68,8.12,18.94,6.88V105.96Zm-226,147.02c-17.85-29.15-123.37-116.33-131.96-124.22-5.19-4.78-11.24-8.59-17.74-13.46-6.29,12.11-6.72,23.27-6.7,34.48.12,60.94.5,121.88.32,182.82-.04,14.65-1.98,29.28-2.81,43.93-.18,3.25.62,6.56,1.2,12.02,4.5-1.39,8.19-1.72,10.96-3.53,10.1-6.6,122.98-101.93,134.07-113.53,4.88-5.1,8.16-11.8,12.66-18.52Zm-93.81,149.43c6.07.47,12.24,1.59,18.36,1.33,28.37-1.21,166.84-1.57,207.72-.06,7.77.29,15.47,1.19,21.46-4.76,3.45-5.84,1.73-10.52-1.88-15.14-7.51-9.6-88.53-87.79-126.36-106.74-10.96,7.7-101.97,91.12-113.47,99.18-8.65,6.06-12,13.87-5.82,26.19Zm130.46-176.3c5.91-13.04,16.82-19.58,28-25.22,36.15-18.24,64.16-46.47,91.11-76.06,3.6-3.95,6.02-9.02,11.04-16.71-92.57.06-181.28-.13-272.02.11,2.98,5.36,4.11,8.67,6.26,11,7.57,8.22,14.99,16.68,23.36,23.99,24.8,21.68,49.04,44.08,78.36,59.83,7.14,3.83,11.99,12.13,17.82,18.45,1.29,1.39,2.26,3.09,3.48,4.8,1.97.38,3.83,1.02,5.69,1.02,1.86,0,3.72-.61,6.89-1.2Z"/>
</svg>