<?xml version="1.0" encoding="UTF-8"?>
<svg id="Layer_1" data-name="Layer 1" xmlns="http://www.w3.org/2000/svg" viewBox="0 0 512 512">
  <defs>
    <style>
      .cls-1 {
        fill: #fff;
      }
    </style>
  </defs>
  <polygon class="cls-1" points="498.45 459.55 375.45 459.55 375.45 429.55 468.45 429.55 468.45 377.55 498.45 377.55 498.45 459.55"/>
  <rect class="cls-1" x="194.88" y="429.55" width="108.29" height="30"/>
  <polygon class="cls-1" points="115.59 459.55 15.59 459.55 15.59 377.55 45.59 377.55 45.59 429.55 115.59 429.55 115.59 459.55"/>
  <rect class="cls-1" x="15.59" y="206.03" width="30" height="100.76"/>
  <polygon class="cls-1" points="45.59 151.27 15.59 151.27 15.59 50.27 115.59 50.27 115.59 80.27 45.59 80.27 45.59 151.27"/>
  <rect class="cls-1" x="194.88" y="50.27" width="108.29" height="30"/>
  <polygon class="cls-1" points="498.45 151.27 468.45 151.27 468.45 80.27 375.45 80.27 375.45 50.27 498.45 50.27 498.45 151.27"/>
  <rect class="cls-1" x="468.45" y="206.03" width="30" height="100.76"/>
</svg>