<?xml version="1.0" encoding="UTF-8"?>
<svg id="Layer_1" data-name="Layer 1" xmlns="http://www.w3.org/2000/svg" viewBox="0 0 512 512">
  <defs>
    <style>
      .cls-1 {
        fill: #fff;
      }
    </style>
  </defs>
  <path class="cls-1" d="m14.12,368.1c-7.69-15.6,14.39-31.27,14.39-31.27,0,0,297.69-298.74,308.39-305.85,12.14.68,20.03,7.66,27.8,15.92,38.29,40.78,76.93,81.22,117.73,120.26.45,4.84.9,9.68,1.27,13.63-1.23,1.85-1.67,2.93-2.44,3.62-9.33,8.37-251.03,257.59-253.27,262.59,3.46.87,5.41,1.92,7.25,1.74,78.03-7.28,156.22-6.75,234.44-5.45,18.29.3,20.53,1.53,28.52,13.79-4.04,19.91-7.39,23.11-26.78,23.47-19.01.35-38.03.13-57.05.13-91.28,0-182.56-.47-273.83.33-21.57.19-104.77-69.02-126.41-112.92Zm161.29-138.19c-47.42,38.89-86.37,79.34-125.16,121.46-2.47,8.68-2.18,15.59,3.32,21.44,16.53,17.57,32.36,35.94,49.98,52.28,9.41,8.72,21.48,15.08,33.3,20.25,6.89,3.02,15.87,3.01,23.54,1.83,15.04-2.31,26.38-11.77,36.96-22.65,17.94-18.44,36.67-36.08,54.89-54.24,7.66-7.63,14.87-15.71,23.5-24.89-15.8-15.85-81.31-93.78-100.34-115.49Z"/>
</svg>