<?xml version="1.0" encoding="UTF-8"?>
<svg id="Layer_1" data-name="Layer 1" xmlns="http://www.w3.org/2000/svg" viewBox="0 0 512 512">
  <defs>
    <style>
      .cls-1 {
        fill: #fff;
      }
    </style>
  </defs>
  <polygon class="cls-1" points="449.13 212.22 400.73 172.51 400.73 235.83 275.49 235.83 275.49 111.27 338.81 111.27 299.1 62.87 259.4 14.47 219.69 62.87 179.98 111.27 243.3 111.27 243.3 235.83 111.27 235.83 111.27 172.51 62.87 212.22 14.47 251.93 62.87 291.64 111.27 331.35 111.27 268.02 243.3 268.02 243.3 400.73 179.98 400.73 219.69 449.13 259.4 497.53 299.1 449.13 338.81 400.73 275.49 400.73 275.49 268.02 400.73 268.02 400.73 331.35 449.13 291.64 497.53 251.93 449.13 212.22"/>
</svg>