<?xml version="1.0" encoding="UTF-8"?>
<svg id="Layer_1" data-name="Layer 1" xmlns="http://www.w3.org/2000/svg" viewBox="0 0 512 512">
  <defs>
    <style>
      .cls-1 {
        fill: #fff;
      }
    </style>
  </defs>
  <path class="cls-1" d="m120.04,45.12h41.93v303.91h166.38v37.78s-174.18.47-178.05,0c-13.51-1.65-21.65-7.67-26.19-16.3-4.29-8.15-4.51-25.23-4.55-34.38-.32-94.94.48-291.01.48-291.01Z"/>
  <polygon class="cls-1" points="361.38 154.55 182.9 154.55 182.9 121.62 391.76 121.62 391.76 470.35 391.76 470.35 361.38 470.35 361.38 154.55"/>
  <rect class="cls-1" x="422.18" y="349.03" width="65.58" height="37.78"/>
  <polygon class="cls-1" points="15.62 154.55 15.62 121.62 28.4 121.62 76.46 121.62 98.42 121.62 98.42 154.55 15.62 154.55"/>
</svg>