<?xml version="1.0" encoding="UTF-8"?>
<svg id="Layer_1" data-name="Layer 1" xmlns="http://www.w3.org/2000/svg" viewBox="0 0 512 512">
  <defs>
    <style>
      .cls-1 {
        fill: #fff;
      }
    </style>
  </defs>
  <path class="cls-1" d="m490.54,73.91v369.73c-12.15,3.73-443.84,4.07-459.23.41-7.92-7.36-8.95-17.33-8.96-27.86-.08-58.05-.29-116.09-.47-174.14-.16-51.88-.35-103.76-.42-155.64,0-4.02.81-8.05,1.47-14.17,6.12-1.39,12.2-3.82,18.34-4.01,41.75-1.27,83.5-2.83,125.26-2.86,80.08-.06,160.16.71,240.23,1.42,19.63.17,39.28,1.08,58.87,2.39,8.27.56,16.41,3.04,24.91,4.71Zm-170.13,341.29c.56-4.81,1.48-9.24,1.51-13.67.16-20.5.17-41,.03-61.5-.05-8.2-.76-16.39-.92-24.59-.56-27.67-1.45-55.35-1.37-83.02.06-21.39,1.4-42.77,2.09-64.16.07-2.03-.37-4.08-.56-6.13-1.48-16.37-3.03-32.68,8.25-46.83,1.62-2.03,1.51-5.51,2.43-9.29-13.86-1.94-26.78-3.15-39.46-5.62-44.11-8.61-88.57-13.21-133.48-13.53-24.66-.18-49.31-.69-73.96-1.47-9.3-.3-18.56-1.79-28.44-2.8v335.81c18.25,4.74,236.24,2.23,263.86-3.2Z"/>
</svg>