<?xml version="1.0" encoding="UTF-8"?>
<svg id="Layer_1" data-name="Layer 1" xmlns="http://www.w3.org/2000/svg" viewBox="0 0 512 512">
  <defs>
    <style>
      .cls-1 {
        fill: #fff;
      }
    </style>
  </defs>
  <path class="cls-1" d="m142.83,312.08c-7.81-1.64-14.39-3.02-20.62-4.33-8.31-12.9-23.67-52.08-28.18-72.41-7.28-32.8-15.01-103.14,13.26-140.76,20.29-27.01,86.39-83.27,95-84.58h221.54c13.64,45.35,28.64,93.94,28.64,141.08,0,101.77-14.62,124.96-41.66,157.63-9.63,11.63-58.71,57.64-122.94,75.99-4.47,1.23-9.13,1.76-14.93,2.84v-21.55c21.64-20.01,43.41-38.58,63.28-59.06,13.01-13.41,23.73-29.26,34.57-44.67,6.24-8.87,5.86-19.26,1.61-30.61-3.44,1.29-6.49,1.96-9.05,3.48-14.26,8.51-28.7,16.78-42.45,26.09-5.61,3.8-10.6,9.4-14.26,15.23-22.09,35.16-151.35,196.04-179.28,214.75-15.72,10.54-33.89,12.21-52.54,8.03-9.21-2.07-13.89-7.35-14.91-16.57-2.1-18.93,1.34-37.21,9.27-54.02,2.85-6.04,137.46-196.82,142.66-204.29,3.6-5.18,9.21-9.2,6.8-18.2-6.12.49-12.3.99-16.31,1.31-19.63,23.68-37.84,45.64-57.33,69.15-.62,10.14-1.33,21.9-2.16,35.49Z"/>
</svg>