<?xml version="1.0" encoding="UTF-8"?>
<svg id="Layer_1" data-name="Layer 1" xmlns="http://www.w3.org/2000/svg" viewBox="0 0 512 512">
  <defs>
    <style>
      .cls-1 {
        fill: #fff;
      }
    </style>
  </defs>
  <path class="cls-1" d="m494.8,436.54l-20.13-17.04V92.5l20.13-17.04c6.96-5.89,7.82-16.3,1.93-23.25s-16.3-7.82-23.25-1.93l-32.75,27.72H71.27l-32.75-27.72c-6.96-5.89-17.37-5.02-23.25,1.93-5.89,6.96-5.02,17.37,1.93,23.25l20.13,17.04v327l-20.13,17.04c-6.96,5.89-7.82,16.3-1.93,23.25,3.26,3.86,7.92,5.84,12.6,5.84,3.77,0,7.55-1.28,10.65-3.91l32.75-27.72h369.46l32.75,27.72c3.1,2.62,6.89,3.91,10.65,3.91,4.68,0,9.34-1.98,12.6-5.84,5.89-6.96,5.02-17.37-1.93-23.25Zm-47.03-39.81l-166.23-140.72,166.23-140.72v281.44Zm-38.82-291.82l-152.95,129.48L103.05,104.91h305.9Zm-344.72,10.37l166.23,140.72-166.23,140.72V115.28Zm38.82,291.82l152.95-129.48,152.95,129.48H103.05Z"/>
</svg>