<?xml version="1.0" encoding="UTF-8"?>
<svg id="Layer_1" data-name="Layer 1" xmlns="http://www.w3.org/2000/svg" viewBox="0 0 512 512">
  <defs>
    <style>
      .cls-1 {
        fill: #fff;
      }
    </style>
  </defs>
  <path class="cls-1" d="m507.89,40.89l1.15,112.78h-45.87v-85.89h-117.34c-3.07,11.8-.84,366.9-.84,366.9h76.54v36.44h-233.08v-36.44h80.39V69.69l-119.09-.89v84.86h-32.7s.11-18.13,0-24.75c-.38-23.02,0-88.03,0-88.03h390.84Z"/>
  <path class="cls-1" d="m205.01,248.8l.59,58.28h-23.7v-44.39h-60.63c-1.59,6.1-.43,189.59-.43,189.59h39.55v18.83H39.94v-18.83h41.54v-188.6l-61.54-.46v43.85H3.05s.06-9.37,0-12.79c-.2-11.9,0-45.49,0-45.49h201.96Z"/>
</svg>