<?xml version="1.0" encoding="UTF-8"?>
<svg id="Layer_1" data-name="Layer 1" xmlns="http://www.w3.org/2000/svg" viewBox="0 0 512 512">
  <defs>
    <style>
      .cls-1 {
        fill: #fff;
      }
    </style>
  </defs>
  <path class="cls-1" d="m194.79,104.27v192.38h38.47v38.6h-77.03v-38.32h-38.35v38.31H40.82v-38.34H2.48v-77.19h38.3v-38.39h76.93v-38.53h38.39v-38.27H40.98v38.38H2.45v-38.49h38.26v-38.51h115.62v38.37h38.45Zm-38.68,153.96v-76.79h-38.24c0,.65,0,1.22,0,1.79,0,11.67-.02,23.34.03,35.01,0,1.36-.34,1.71-1.71,1.71-24.49-.05-48.99-.03-73.48-.03-.56,0-1.12,0-1.68,0v76.69h76.79v-38.36h38.3Z"/>
  <path class="cls-1" d="m509.38,405.57h-10.5c-9.53,0-19.05-.1-28.57-.1s-11.31-14.7-11.32-18.12c-.11-46.57,0-93.13-.17-139.7-.02-6.3-3.38-38.49-27.4-53.53-8.8-5.52-49.91-37.28-112-8.88-1.53.7-3.08,1.48-4.48,2.43-8.67,5.86-17.61,11.35-25.33,18.54-2.28,2.12-5.11,4.02-7.23,5.97-.05.04-.11.13-.15.18-10.01,4.65-16.99,14.73-16.99,26.49,0,16.17,13.11,29.28,29.28,29.28s29.28-13.11,29.28-29.28c0-1.55-.22-3.04-.46-4.52.48-1.89,1.02-3.78,1.4-5.69,1.68-8.45,5.31-13.7,12.83-17.68,35.65-18.84,51.43-6.79,62.84,2.47,6.4,5.2,10.11,11.46,11.9,18.08,2.46,9.13,2.91,19.14,2.3,28.65-.45,7.01-3.53,13.94-10.83,17.79-7.6,4.01-92.03,47.8-113.2,72.81-21.84,25.8-19.93,94.41,45.31,94.41,24.87,0,38.03-3.17,47.91-8.98,6.94-4.08,22.71-13.01,28.52-15.23,1.12-.43,4.06-1.01,4.79-.06,3.86,5.02,19.64,17.89,37.03,24.27,5.5,2.02,17.58.08,17.58.08,0,0,29.91-31.31,37.77-37.62.16-.13-.02-.69-.1-2.09Zm-100.45-16.81c-18.82,16.19-45.66,21.33-73.57,12.55-12.82-4.03-23.61-21.47-2.92-44.26,11.82-13.02,58.63-44.9,77.35-43.87,3.08.17,5.17,1.98,5.16,5.51-.04,8.79,1.46,63.64-6.01,70.06Z"/>
</svg>