<?xml version="1.0" encoding="UTF-8"?>
<svg id="Layer_1" data-name="Layer 1" xmlns="http://www.w3.org/2000/svg" viewBox="0 0 512 512">
  <defs>
    <style>
      .cls-1 {
        fill: #fff;
      }
    </style>
  </defs>
  <path class="cls-1" d="m112.46,468.92c13.4-28.52,21.25-56.54,27.24-85.05,6.68-31.8,24.97-56.24,49.28-74.7,25.41-19.29,55.6-21.01,84.26-7.38,34.98,16.63,43.74,61.82,19.32,92.66-6.26,7.91-13.65,14.94-20.89,21.98-6.9,6.71-14.49,12.67-21.4,19.37-18.32,17.79-39.77,27.81-65.2,29.35-20.46,1.24-40.87,3.43-61.32,4.99-3.12.24-6.32-.64-11.31-1.21Z"/>
  <path class="cls-1" d="m322.31,307.91c-8.07-6.39-14.89-12.53-22.42-17.55-8.73-5.82-17.97-10.89-27.23-15.84-8.45-4.51-17.15-8.48-21.98-19.33,7.12-8.49,14.03-17.76,21.97-26.01,38.74-40.23,77.76-80.18,116.67-120.24,3.02-3.11,6.34-6,8.89-9.48,19.65-26.81,48.22-40.47,76.68-54.25,8.93-4.33,9.08-4.01,21-1.85.84,10.37-2.47,19.92-6.99,28.89-17.24,34.18-35.48,67.93-60,97.26-19.65,23.51-35.54,49.21-50.05,76.07-13.56,25.09-31.98,45.69-56.53,62.32Z"/>
  <path class="cls-1" d="m310.71,121.09c-41.84-8.89-80.07-18.04-118.61-2.64-13.7,5.48-26.79,12.68-39.78,19.81-12.04,6.62-13.26,28.21-2.58,39.35,2.64,2.75,5.98,4.8,8.91,7.27,6.48,5.45,7.47,7.29,9.23,16.63-10.2,2.92-131.63,3.78-151.9.89,1.08-3.18,1.38-6.68,3.17-8.97,23.79-30.31,47.79-60.44,71.63-90.47,20.33,2.1,26.51,19.91,38.57,30.1,7.09,2.2,12.73-1.05,18.58-4.71,16.64-10.39,33.43-20.52,50.26-30.59,22.2-13.29,46.41-13.42,70.8-10.02,5.76.8,11.44,4.56,16.44,8.03,6.66,4.64,12.79,10.14,18.78,15.68,2.37,2.19,3.76,5.47,6.5,9.63Z"/>
  <path class="cls-1" d="m420.24,320.13c7.63,1.26,12.71,2.1,19.36,3.19.6,6.06,1.2,12.06,1.96,19.62-6.4,3.31-12.49,6.47-19.17,9.93-4.37-3.23-8-5.92-13.05-9.65,3.78-7.99,7.13-15.08,10.91-23.09Z"/>
  <path class="cls-1" d="m462.12,204.48c4.92,11.59,4.53,20.63-.27,29.39-17.57-.16-20.92-5.4-18.45-29.39h18.72Z"/>
  <path class="cls-1" d="m352.3,390.95h22c6.21,5.3,6.97,11.79,3.61,19.31-7.84,5.9-16.07,4.08-25.61,2.07v-21.38Z"/>
  <path class="cls-1" d="m462.79,296.15h-19.21c-.46-7.25-.87-13.64-1.35-21.29h19.28c5.4,7.64,5.3,14.2,1.28,21.29Z"/>
</svg>