<?xml version="1.0" encoding="UTF-8"?>
<svg id="Layer_1" data-name="Layer 1" xmlns="http://www.w3.org/2000/svg" viewBox="0 0 512 512">
  <defs>
    <style>
      .cls-1 {
        fill: #fff;
      }
    </style>
  </defs>
  <path class="cls-1" d="m40.22,495.91c-.62-12.51,5.48-19.47,13.61-24.43,10.55-6.42,14.49-15.63,14.25-27.64-.24-11.55-.03-23.12,0-34.68.02-12.4,2.77-24.32,9.71-34.35,20.75-30,45.55-55.36,79.09-70.85,13.9-6.42,26.54-6.24,39.81,1.14,9.93,5.52,20.21,10.45,30.64,14.92,11.15,4.78,16.93,13.35,18.79,24.98,4.79,29.89.56,56.95-20.4,80.67-30.11,34.08-64.23,60.69-109.82,68.21-24.99,4.12-50.15,1.56-75.65,2.03Z"/>
  <path class="cls-1" d="m284.78,322.12c-4.26-3.2-10.27-6.95-15.38-11.71-7.6-7.09-14.3-15.16-21.85-22.31-10.06-9.52-20.56-18.55-31.51-27.09-3.3-5.95.6-9.94,4.99-14.01,12.54-11.61,25.95-22.47,37.15-35.31,31.19-35.78,62.78-70.92,98.57-102.2,30.09-26.31,58.12-55.06,87.2-82.59,6.73-6.37,13.74-12.82,25.59-10.77.78,3.89,2.13,7.77,2.23,11.69.68,26.13-6.11,49.35-23.14,69.87-12.58,15.15-22.84,32.3-34.05,48.62-4.43,6.45-8.17,13.45-13.04,19.52-14.74,18.35-28.37,37.33-38.57,58.83-3.31,6.98-8.39,13.25-13.4,19.19-8.06,9.55-17.15,18.22-25.07,27.88-13.11,15.98-25.64,32.46-39.71,50.39Z"/>
</svg>