<?xml version="1.0" encoding="UTF-8"?>
<svg id="Layer_1" data-name="Layer 1" xmlns="http://www.w3.org/2000/svg" viewBox="0 0 512 512">
  <defs>
    <style>
      .cls-1 {
        fill: #fff;
      }
    </style>
  </defs>
  <path class="cls-1" d="m250.43,353.18c5.82-2.31,8.76-3.47,13.25-5.25,2.46-12.44,5.57-25.25,7.41-38.25,1.99-14.09,6.91-26.46,16.73-36.61,4.88-5.05,10.27-8.47,18.28-1.86.38,4.4,1.74,10.04,1.19,15.47-3.16,31.05-6.87,62.03-10.19,93.06-1.64,15.35-5.98,29.46-15.01,42.15-4.03,5.67-7.3,12.2-9.54,18.82-3.86,11.37-10.73,19.93-20.69,25.78-38.76,22.75-78.85,29.75-121.04,9.97-7.17-3.36-14.33-6.74-21.62-9.81-8.39-3.53-14.15-9.53-15.32-18.68-1.85-14.41-9.27-25.67-18.45-35.88-18.39-20.47-32.14-43.96-44.07-68.67-2.38-4.94-4.08-10.22-6-15.1,5.67-5.99,11.23-6.41,17.5-5,8.97,2.02,15.83,7.22,22.56,13.31,10.04,9.09,20.47,17.77,31.21,25.98,4.26,3.26,9.8,4.78,16.12,7.73-1.56-18.52-3.43-35.26-4.25-52.06-.81-16.54-1.07-33.15-.64-49.7.44-16.83-2.26-33.95,3.05-52.32,7.89-.47,15.44-.92,24.5-1.46.95,9.36,2.36,17.2,2.44,25.07.25,23.2-.07,46.41-.06,69.61,0,5.1.47,10.2.8,16.88,7.04.46,13.16.85,20.91,1.35v-132.19c9.02-6.59,17.14-4.57,26.92-3.01.88,5.77,2.4,11.62,2.55,17.5.71,26.97,1.21,53.95,1.42,80.93.1,13.64,3.69,25.09,16.28,32.83,3.26-1.35,6.58-2.72,11.13-4.61,1.62-36.7,5.25-73.33,1.47-109.73,10.74-6.03,15.37-5.4,29.4,4.09,2.78,45.12-.96,91.34,1.76,139.62Z"/>
  <path class="cls-1" d="m257.64,171.55c-17.34-.91-34.87,4.45-52.28.06-2.7-8.95-.22-15.97,4.4-22.08,5.08-6.72,10.43-13.37,16.51-19.12,9.17-8.68,19.06-16.56,28.65-24.77-.6-1.52-1.21-3.04-1.81-4.56,4.68,2.45,10.78,3.73,13.79,7.54,12.75,16.14,29.44,27.41,45.51,39.28,17.49,12.92,32.33,27.91,45.27,45.62,20.34,27.84,43.91,52.37,74.64,69.03,12.17,6.6,22.86,16.04,34.91,24.67.3,4.2.62,8.8.85,11.95-35.66,35.63-70.51,70.25-105.11,105.14-10.22,10.31-19.41,21.69-29.65,31.96-6.79,6.8-14.62,12.52-24.57,20.9,0-8.43-.76-13.45.13-18.14,4.67-24.58,8.96-49.18,17.63-72.87,8.51-23.23,11.59-47.63,10.88-72.53-.34-11.81.58-23.65.57-35.47,0-4.56-1-9.12-1.45-12.93-10.69-7.24-21.6-6.35-32.14-6.77-10.56-.43-21.15-.09-33.12-.09-1.25-15.02-2.68-29.52-3.6-44.05-.53-8.33-2.28-15.85-10.02-22.78Z"/>
  <path class="cls-1" d="m354.86,133.44c2.58-23.04,4.92-44.02,7.44-66.49-8.16-3.85-15.03-7.37-22.11-10.35-6.4-2.7-13.89-3.55-19.42-7.41-16.14-11.3-34.3-14.44-52.94-14.48-14.76-.03-29.54,2.19-44.28,3.75-3.62.38-7.53,1.39-10.59,3.29-11.95,7.42-24.48,12.97-38.22,16.09-4.24.96-8.47,4.19-11.63,7.45-18.86,19.49-41.48,35.12-57.08,57.99-2.72,3.99-6.84,6.99-11.05,11.18-3.91-9.19-2.13-15.97,1.95-21.81,5.63-8.06,11.79-15.78,18.23-23.19,49.48-56.88,112.48-72.75,183.93-62.69,6.88.97,13.69,2.51,20.57,3.55,14.55,2.22,27.37,8.08,39.15,17.17,13.07,10.07,18.93,9.85,32.65.41,6.13-4.22,11.9-8.96,17.3-13.05,8.14-1.74,14.87.12,20.01,5.47,21.47,22.34,42.74,44.9,54.09,74.84,1.63,4.29,2.66,8.82,3.79,12.62-5.27,6.77-11.46,5.55-17.42,5.41-22.74-.52-45.48-1.19-68.22-1.33-9.72-.06-19.44,1.11-29.16,1.54-4.98.22-9.97.04-16.99.04Z"/>
</svg>