<?xml version="1.0" encoding="UTF-8"?>
<svg id="Layer_1" data-name="Layer 1" xmlns="http://www.w3.org/2000/svg" viewBox="0 0 512 512">
  <defs>
    <style>
      .cls-1 {
        fill: #fff;
      }
    </style>
  </defs>
  <path class="cls-1" d="m390.28,3.57l.78,69.74-31.15,11.96V31.92c-27.36,10.5-53.53,20.55-79.68,30.59-2.09,8.13-.57,228.08-.57,228.08l51.97-19.95v22.63l-158.27,60.75v-22.63l54.59-20.95V83.77l-80.86,30.49v52.7l-22.21,8.52s.07-11.29,0-15.37c-.26-14.2,0-54.67,0-54.67L390.28,3.57Z"/>
  <path class="cls-1" d="m72.41,508.43l-21.92-15.66c42.71-59.78,120.1-96.92,201.97-96.92,94.7,0,168.94,33.99,209.06,95.72l-22.59,14.68c-47.2-72.62-137.09-83.46-186.47-83.46-73.32,0-142.31,32.81-180.04,85.64Z"/>
</svg>