<?xml version="1.0" encoding="UTF-8"?>
<svg id="Layer_1" data-name="Layer 1" xmlns="http://www.w3.org/2000/svg" viewBox="0 0 512 512">
  <defs>
    <style>
      .cls-1 {
        fill: #fff;
      }
    </style>
  </defs>
  <path class="cls-1" d="m425.2,227.84c-8.37,1.55-13.81-.17-18.74-4.33-8.5-7.17-17.63-13.67-25.45-21.54-24.2-24.36-48.02-49.12-71.72-74-5.33-5.6-9.54-12.3-15.21-19.72,4.68-4.73,8.11-8.92,12.22-12.2,9.77-7.79,51.19-44.34,63.61-56.93,3.5,1.87,9.33,3.64,13.41,7.39,20.79,19.16,41.5,38.45,61.48,58.48,10.09,10.12,29.49,24.64,37.35,36.6,9.32,11.86,9.32,19.48-.85,33.04-13.21,13.57-41.91,40.65-56.11,53.22Z"/>
  <path class="cls-1" d="m245.48,407.93c-3.36,3.61-5.11,6.98-7.76,8.1-14.37,6.01-41.7,50.2-52.96,54.65-9.4,3.72-18.1,2.79-26.05-3.5-3.63-2.87-7.01-6.1-10.26-9.41-27.68-28.25-55.38-56.48-82.86-84.93-4.4-4.56-7.77-10.15-11.2-14.72,5.95-11.74,60.07-69.08,70.42-74.44,4.2,2.67,9.7,5.19,14.01,9.08,33.84,30.55,65.99,62.86,95.4,97.89,4.33,5.16,7.46,11.38,11.26,17.28Z"/>
  <path class="cls-1" d="m378.68,239.13c-5.37-4.98-9.22-11.63-14.11-17.19-7.94-9.03-15.87-18.12-24.39-26.56-6.57-6.51-14.28-11.8-21.06-18.1-13.24-12.29-26.18-24.92-38.85-37.03-25.6-1.55-115.41,91.14-120.75,101.63-5.47,10.74-5.76,21.71,2.06,31.72,4,5.13,8.14,10.18,12.64,14.85,25.82,26.77,51.7,53.49,77.73,80.05,5.17,5.27,11.08,9.78,17.49,15.38,8.57-5.85,17.82-10.49,24.94-17.39,14.65-14.19,27.87-29.89,42.23-44.42,13.71-13.87,29.17-26.08,41.95-40.75,15.55-17.87,15.09-28.33.13-42.2Zm-157.15,12.57c-7.73,7.58-20.14,7.46-27.71-.27-7.58-7.73-7.46-20.14.27-27.71,7.73-7.58,20.14-7.46,27.71.27,7.58,7.73,7.46,20.14-.27,27.71Zm41.15,41.95c-7.73,7.58-20.14,7.46-27.71-.27-7.58-7.73-7.46-20.14.27-27.71,7.73-7.58,20.14-7.46,27.71.27,7.58,7.73,7.46,20.14-.27,27.71Zm-20.43-89.72c-7.58-7.73-7.46-20.14.27-27.71,7.73-7.58,20.14-7.46,27.71.27,7.58,7.73,7.46,20.14-.27,27.71-7.73,7.58-20.14,7.46-27.71-.27Zm61.57,131.68c-7.73,7.58-20.14,7.46-27.71-.27-7.58-7.73-7.46-20.14.27-27.71,7.73-7.58,20.14-7.46,27.71.27,7.58,7.73,7.46,20.14-.27,27.71Zm7.29-89.46c-7.73,7.58-20.14,7.46-27.71-.27-7.58-7.73-7.46-20.14.27-27.71,7.73-7.58,20.14-7.46,27.71.27,7.58,7.73,7.46,20.14-.27,27.71Zm41.15,41.95c-7.73,7.58-20.14,7.46-27.71-.27-7.58-7.73-7.46-20.14.27-27.71,7.73-7.58,20.14-7.46,27.71.27,7.58,7.73,7.46,20.14-.27,27.71Z"/>
  <circle class="cls-1" cx="65.95" cy="264.35" r="16.09"/>
  <circle class="cls-1" cx="41.69" cy="205.97" r="16.09"/>
  <circle class="cls-1" cx="40.84" cy="144.84" r="16.09"/>
  <circle class="cls-1" cx="61.17" cy="93.31" r="16.09"/>
  <circle class="cls-1" cx="115.15" cy="68.59" r="16.09"/>
  <circle class="cls-1" cx="172.98" cy="68.75" r="16.09"/>
  <circle class="cls-1" cx="223.42" cy="92.62" r="16.09"/>
</svg>