<?xml version="1.0" encoding="UTF-8"?>
<svg id="Layer_1" data-name="Layer 1" xmlns="http://www.w3.org/2000/svg" viewBox="0 0 512 512">
  <defs>
    <style>
      .cls-1 {
        fill: #fff;
      }
    </style>
  </defs>
  <path class="cls-1" d="m467.4,18.17c.91,6.57,2.56,12.99,2.58,19.42.25,72.94.27,145.87.28,218.81,0,8.52-.26,17.05-.75,25.56-.98,17.06-7.16,25.35-23.17,29.18-12.89,3.09-149.55,69.6-152.97,69.74-13.48.55-20.65,9.56-27.1,19.69-21.4,33.63-47.99,62.45-78.11,88.04-6.94,5.89-19.26,14-23.86,4.98s8.05-17.55,15.84-23.96c10.08-8.29,20.44-16.51,29.07-26.25,13.16-14.85,12.75-25.55-.48-39.77-11.12-11.96-23.11-23.09-35.7-35.57-8.54,4.78-16.53,8.45-23.64,13.41-16.09,11.24-32.15,22.59-47.44,34.91-12.33,9.94-35.55,25.16-42.75,9.19-2.71-6,5.57-10.6,8.92-14.53,12.95-15.17,28.57-27.03,45.91-36.48,16.9-9.2,32.36-20.35,46.31-33.77,16.75-16.12,19.17-27.44,8.27-47.8-11.57-21.6-123.32-192.56-126.87-206.26,6.74-9.01,15.84-9.24,24.38-7.06,12.07,3.08,206.58,74.72,222.01,76.04,18.29,1.56,34.1-3.85,47.03-16.88,15.84-15.97,86.23-91.45,106.34-112.45,6.13-6.4,13.29-12.09,25.91-8.18Zm-178.4,338.02c9.94,2.92,16.07.99,22.43-2.96,26.12-16.23,102.1-59.54,114.27-63.78,11.98-4.17,14.3-5.47,14.33-18.55.13-64.83.12-129.66.05-194.49,0-2.93-1.06-5.86-2.08-11.08-6.49,5.59-11.56,9.52-16.13,13.98-14.06,13.71-83,94.72-93.91,101.47-8.7,5.39-17.46,10.68-27.8,17-4.62-2.06-10.43-3.72-15.19-6.97-9.89-6.74-191.61-94.07-203.47-78.82-6.45,8.29,90.05,141.47,103.11,159.28,9.86,13.45,20.73,18.72,37.49,18.14,32.08-1.12,56.54,21,62.68,53.02.94,4.89,2.9,9.57,4.21,13.77Zm-92.21-5.14c21.7,22.97,24.39,31.61,35.51,28.77,12.44-3.18,22.82-15.16,26.52-27.88,5.21-17.9-20.16-36.32-39.01-41.29-20.44,5.24-26.54,15.96-23.02,40.4Z"/>
</svg>