<?xml version="1.0" encoding="UTF-8"?>
<svg id="Layer_1" data-name="Layer 1" xmlns="http://www.w3.org/2000/svg" viewBox="0 0 512 512">
  <defs>
    <style>
      .cls-1 {
        fill: #fff;
      }
    </style>
  </defs>
  <path class="cls-1" d="m472.16,60.05H39.84c-11.88,0-21.51-9.63-21.51-21.51s9.63-21.51,21.51-21.51h432.33c11.88,0,21.51,9.63,21.51,21.51s-9.63,21.51-21.51,21.51Z"/>
  <path class="cls-1" d="m472.16,205.02H39.84c-11.88,0-21.51-9.63-21.51-21.51s9.63-21.51,21.51-21.51h432.33c11.88,0,21.51,9.63,21.51,21.51s-9.63,21.51-21.51,21.51Z"/>
  <path class="cls-1" d="m438.56,494.98H73.44c-11.88,0-21.51-9.63-21.51-21.51s9.63-21.51,21.51-21.51h365.11c11.88,0,21.51,9.63,21.51,21.51s-9.63,21.51-21.51,21.51Z"/>
  <path class="cls-1" d="m415.7,350H96.3c-11.88,0-21.51-9.63-21.51-21.51s9.63-21.51,21.51-21.51h319.41c11.88,0,21.51,9.63,21.51,21.51s-9.63,21.51-21.51,21.51Z"/>
  <path class="cls-1" d="m415.7,132.53H96.3c-11.88,0-21.51-9.63-21.51-21.51s9.63-21.51,21.51-21.51h319.41c11.88,0,21.51,9.63,21.51,21.51s-9.63,21.51-21.51,21.51Z"/>
  <path class="cls-1" d="m489.21,277.51H22.79c-11.88,0-21.51-9.63-21.51-21.51s9.63-21.51,21.51-21.51h466.42c11.88,0,21.51,9.63,21.51,21.51s-9.63,21.51-21.51,21.51Z"/>
  <path class="cls-1" d="m489.21,422.49H22.79c-11.88,0-21.51-9.63-21.51-21.51s9.63-21.51,21.51-21.51h466.42c11.88,0,21.51,9.63,21.51,21.51s-9.63,21.51-21.51,21.51Z"/>
</svg>