<?xml version="1.0" encoding="UTF-8"?>
<svg id="Layer_1" data-name="Layer 1" xmlns="http://www.w3.org/2000/svg" viewBox="0 0 512 512">
  <defs>
    <style>
      .cls-1 {
        fill: #fff;
      }
    </style>
  </defs>
  <path class="cls-1" d="m279.84,209.2c-1.79,23.76.42,45.95,5.14,67.81,3.88,17.97,7.54,19.73,25.63,22.22,17.3,2.39,34.76,5.15,51.45,10.18,24.41,7.35,48.74,13.7,74.38,13.38,1.38-.02,2.77.66,5.79,1.43,1.42,30.64.42,61.57.64,93.61H69v-87.96c21.85-10.1,45.96-11.48,68.57-17.99,22.38-6.45,45.55-10.06,70.67-15.4,1.8-5.69,4.64-12.98,6.36-20.53,3.41-14.97,5.9-30.16,9.33-45.12,2.55-11.14.44-20.4-7.64-28.5-12.84-12.88-25.51-25.93-38.1-39.06-12.24-12.77-18.18-28.21-16.42-46.01.72-7.25,2.19-15.03,5.64-21.24,5.21-9.37,11.62-18.38,18.97-26.11,36.06-37.97,45.64-33.86,88.66-32.71,8.57.23,18.45,4.62,25.16,10.27,13.41,11.28,26.38,23.68,37.11,37.57,17.34,22.46,16.32,49.99-.1,73.1-12.2,17.18-28.62,29.61-45.06,42.04-3.88,2.94-7.85,5.77-12.29,9.03Z"/>
  <path class="cls-1" d="m418.9,443.02c3.38,6.07,6.87,12.34,9.49,17.05-1.04,10.73-6.16,14.24-13.93,14.61-4.37.2-8.74.25-13.12.26-93.79.2-187.59.39-281.38.58-10.62.02-21.23,0-32.44,0-8.85-9.89-4.67-19.73.31-31.18,5.26-.82,10.85-2.43,16.45-2.44,100.6-.15,201.2-.11,301.8-.05,3.82,0,7.64.68,12.82,1.18Z"/>
</svg>