<?xml version="1.0" encoding="UTF-8"?>
<svg id="Layer_1" data-name="Layer 1" xmlns="http://www.w3.org/2000/svg" viewBox="0 0 512 512">
  <defs>
    <style>
      .cls-1 {
        fill: #fff;
      }
    </style>
  </defs>
  <path class="cls-1" d="m475.64,439.81c-3.2-7.09-8.11-13.84-13.61-19.33-30.08-30.05-60.58-59.67-90.96-89.42-5.34-5.23-22.27-21.22-24.17-24.72,15.27-25.48,24.06-55.26,24.06-87.06,0-93.66-76.2-169.86-169.86-169.86S31.26,125.61,31.26,219.27s76.2,169.86,169.86,169.86c39.2,0,75.34-13.36,104.12-35.75,1.58,1.13,3.14,2.29,4.72,3.42,12.83,9.18,95.13,94.18,109.1,107.96,5.23,5.16,11.42,9.99,18.06,12.81,11.81,5.03,24.3,4.02,33.86-4.96,9.54-8.96,9.84-21.34,4.67-32.8ZM61.26,219.27c0-77.12,62.74-139.86,139.86-139.86s139.86,62.74,139.86,139.86-62.74,139.86-139.86,139.86S61.26,296.38,61.26,219.27Z"/>
  <path class="cls-1" d="m280.56,117.26c-21.4-14.93-43.74-22.55-68.52-24.75-8.62-.77-21.84-1.79-30.87,1.88-6.27,2.55-12.09,9.57-12.21,15.17-.14,6.55,3.44,13.32,9.31,17.14,11,7.15,23.98,3.45,38.74,3.26,14.61-.56,31.55,4.51,38.33,8.48,15.9,9.32,28.33,20.89,39.06,35.01,5.34,7.02,11.83,23.15,16.09,23.15,28.96,0-4.71-61.74-29.93-79.34Z"/>
</svg>