<?xml version="1.0" encoding="UTF-8"?>
<svg id="Layer_1" data-name="Layer 1" xmlns="http://www.w3.org/2000/svg" viewBox="0 0 512 512">
  <defs>
    <style>
      .cls-1 {
        fill: #fff;
      }
    </style>
  </defs>
  <path class="cls-1" d="m142.83,312.08c-1.94,7.74-15.37-.72-20.62-4.33-12.64-8.7-23.67-52.08-28.18-72.41-7.28-32.8-15.01-103.14,13.26-140.76,20.29-27.01,86.39-83.27,95-84.58h221.54c13.64,45.35,28.64,93.94,28.64,141.08,0,101.77-14.62,124.96-41.66,157.63-9.63,11.63-58.71,57.64-122.94,75.99-4.47,1.23-10.39,6.61-14.93,2.84-6.43-5.34-2.56-15.69,0-21.55,11.81-27,45.47-43.35,63.28-59.06,13.01-13.41,23.73-29.26,34.57-44.67,6.24-8.87,12.6-25.49,1.61-30.61-37.42-17.43-217.11,240.83-245.04,259.55-15.72,10.54-33.89,12.21-52.54,8.03-9.21-2.07-13.89-7.35-14.91-16.57-2.1-18.93,1.34-37.21,9.27-54.02,2.85-6.04,137.46-196.82,142.66-204.29,3.6-5.18,10.19-15.78,6.8-18.2-4.99-3.57-12.74-.55-16.31,1.31-27.3,14.19-43.55,41.02-59.49,104.64Z"/>
</svg>