<?xml version="1.0" encoding="UTF-8"?>
<svg id="Layer_1" data-name="Layer 1" xmlns="http://www.w3.org/2000/svg" viewBox="0 0 512 512">
  <defs>
    <style>
      .cls-1 {
        fill: #fff;
      }
    </style>
  </defs>
  <path class="cls-1" d="m455.15,60.01H22.74c-11.88,0-21.52-9.63-21.52-21.52s9.63-21.52,21.52-21.52h432.41c11.88,0,21.52,9.63,21.52,21.52s-9.63,21.52-21.52,21.52Z"/>
  <path class="cls-1" d="m455.15,205.01H22.74c-11.88,0-21.52-9.63-21.52-21.52s9.63-21.52,21.52-21.52h432.41c11.88,0,21.52,9.63,21.52,21.52s-9.63,21.52-21.52,21.52Z"/>
  <path class="cls-1" d="m387.92,495.02H22.74c-11.88,0-21.52-9.63-21.52-21.52s9.63-21.52,21.52-21.52h365.18c11.88,0,21.52,9.63,21.52,21.52s-9.63,21.52-21.52,21.52Z"/>
  <path class="cls-1" d="m342.21,350.02H22.74c-11.88,0-21.52-9.63-21.52-21.52s9.63-21.52,21.52-21.52h319.47c11.88,0,21.52,9.63,21.52,21.52s-9.63,21.52-21.52,21.52Z"/>
  <path class="cls-1" d="m342.21,132.51H22.74c-11.88,0-21.52-9.63-21.52-21.52s9.63-21.52,21.52-21.52h319.47c11.88,0,21.52,9.63,21.52,21.52s-9.63,21.52-21.52,21.52Z"/>
  <path class="cls-1" d="m489.26,277.52H22.74c-11.88,0-21.52-9.63-21.52-21.52s9.63-21.52,21.52-21.52h466.51c11.88,0,21.52,9.63,21.52,21.52s-9.63,21.52-21.52,21.52Z"/>
  <path class="cls-1" d="m489.26,422.52H22.74c-11.88,0-21.52-9.63-21.52-21.52s9.63-21.52,21.52-21.52h466.51c11.88,0,21.52,9.63,21.52,21.52s-9.63,21.52-21.52,21.52Z"/>
</svg>