<?xml version="1.0" encoding="UTF-8"?>
<svg id="Layer_1" data-name="Layer 1" xmlns="http://www.w3.org/2000/svg" viewBox="0 0 512 512">
  <defs>
    <style>
      .cls-1 {
        fill: #fff;
      }
    </style>
  </defs>
  <path class="cls-1" d="m112,30.66c6.98-10.88,20.42-3.47,28.84,2.9,24.45,18.49,246.72,240.54,252.43,246.78,4.72,5.16,8.97,10.99,7.88,20.85-14.68,1.04-118.42.57-136.15.57,4.99,8.41,50.4,92.24,65.25,121.83,3.6,7.17,7.05,14.47,9.85,21.99,2.71,7.28,1.38,14.7-4.56,19.57-8.96,7.34-18.72,13.66-27.04,19.62-10.27-3.12-13.24-10.27-16.63-17.03-14.21-28.38-76.04-139.68-78.4-141.73-2.54,1.47-64.02,75.19-72.32,84.85-6.48,7.54-14.31,12.21-26.37,9.06-1.02-3.02-2.59-6.82-3.53-10.78-.65-2.73-.56-5.68-.56-8.52,0-115.65-2.93-363.33,1.32-369.96Zm29.15,337.21c5.54-2.33,81.07-91.64,90.47-92.99,6.45-.93,120.37-1.27,120.37-1.27,0,0-195.69-187.94-211.08-190.34-.52,12.12-1.39,23.34-1.41,34.55-.09,77.06.97,242.19,1.64,250.05Z"/>
</svg>