<?xml version="1.0" encoding="UTF-8"?>
<svg id="Layer_1" data-name="Layer 1" xmlns="http://www.w3.org/2000/svg" viewBox="0 0 512 512">
  <defs>
    <style>
      .cls-1 {
        fill: #fff;
      }
    </style>
  </defs>
  <path class="cls-1" d="m224.79,390.32c5.87-7.34,11.46-14.94,17.69-21.96,9.16-10.32,14.17-22.22,13.05-36.04-2.06-25.5,7.77-45.46,24.46-63.79,15.43-16.95,32.53-30.8,53.03-40.6,10.91-5.22,21.27-5.38,31.99.4,9.05,4.88,18.3,9.39,27.66,13.63,10.91,4.94,15.94,13.51,17.58,25.29,3.44,24.7-1.04,46.58-17.85,65.83-26.19,29.97-55.93,53.47-96.17,59.34-23.35,3.41-46.76,1.47-70.15,1.64-.43-1.25-.85-2.5-1.28-3.75Z"/>
  <path class="cls-1" d="m381.49,189.49c1.77-3.24,31.51-33,43.12-45.46,11.35-12.18,22.43-24.74,32.52-38.01,6.17-8.11,10.91-17.57,15.05-27,3.64-8.28,8.31-13.44,19.21-13.55,0,8.27-.07,15.76.01,23.26.19,16.37.67,32.73.65,49.1-.04,30.45-12.65,56.29-29.27,80.48-5.81,8.45-12.32,16.4-19.62,26.04-5.6-4.58-11.67-8.94-17.03-14.08-7.14-6.85-13.38-14.67-20.63-21.38-6.84-6.33-14.48-11.77-24.02-19.4Z"/>
  <path class="cls-1" d="m189.41,90.15c1.16,6.98,2.16,13.01,2.87,17.31-4.39,10.52-12,11.1-19.31,11.99-12.6-5.37-11.4-15.8-10.38-26.13,7.64-9.06,16.37-4.37,26.82-3.17Z"/>
  <path class="cls-1" d="m21.78,371.39c-.67-8.29-1.26-15.74-1.8-22.42,11.14-9.14,16.57-9.05,29.06-.38,1.88,11.81,1.76,12.31-5.84,22.8h-21.42Z"/>
  <path class="cls-1" d="m52.86,134.01c3.38-3.7,7.4-8.1,10.95-12,21.5,7.08,25.04,13.66,17.39,29.96-17.43,4.29-23.47.78-28.34-17.96Z"/>
  <path class="cls-1" d="m46.7,261.54c-7.46.53-15.1,1.07-24.69,1.75-.81-8.93-1.47-16.28-2.06-22.82,9.77-8.24,17.3-9.19,24.95-3.96,6.12,4.19,6.83,9.79,1.8,25.03Z"/>
  <path class="cls-1" d="m170.42,415.21c5.29.94,10.9,1.94,18.36,3.27.83,7.37,1.65,14.63,2.37,20.99-13.38,8.47-16.89,8.36-28.48.02-.53-8.1-2.73-16.85,7.74-24.28Z"/>
  <path class="cls-1" d="m125.03,121.06c-6.01-1.91-10.05-3.19-13.38-4.25-6.72-9.17-6.33-18.22-4.6-28.31h19.09c3.95,10.43-.65,20.17-1.1,32.56Z"/>
  <path class="cls-1" d="m124.93,446.53c-17.38-.03-21.59-7.17-16.45-28.85,4.83-.65,10.22-1.38,15.89-2.15,4.31,11.32,3.87,21.16.56,30.99Z"/>
  <path class="cls-1" d="m22.29,176.34h27.31c.89,8.58-1.92,14.62-8.21,20.41h-17.2c-5.06-6.31-4.51-12.63-1.9-20.41Z"/>
  <path class="cls-1" d="m266.66,178.32c-3.6,7.41-6.38,13.12-9.07,18.65h-22.2v-19.81c10.6-4.47,19.64-.01,31.27,1.16Z"/>
  <path class="cls-1" d="m51.84,287.38c-3.61,7.5-6.41,13.31-8.88,18.42h-21.29v-19.25c9.71-4.15,18.58-2.14,30.17.83Z"/>
  <path class="cls-1" d="m81.95,415.06h-21.79c-2.07-4.91-4.41-10.46-6.7-15.9,9.41-8.98,18.51-4.31,28.49-3.22v19.13Z"/>
  <path class="cls-1" d="m233.72,131c2.48,8.97,1.7,16.4-5.49,22.04-13.25-4.57-16.61-11.27-13.14-25.63q8.61-2.55,18.63,3.59Z"/>
</svg>