<?xml version="1.0" encoding="UTF-8"?>
<svg id="Layer_1" data-name="Layer 1" xmlns="http://www.w3.org/2000/svg" viewBox="0 0 512 512">
  <defs>
    <style>
      .cls-1 {
        fill: #fff;
      }
    </style>
  </defs>
  <path class="cls-1" d="m489.17,60.08H56.92c-11.88,0-21.51-9.63-21.51-21.51s9.63-21.51,21.51-21.51h432.25c11.88,0,21.51,9.63,21.51,21.51s-9.63,21.51-21.51,21.51Z"/>
  <path class="cls-1" d="m489.17,205.03H56.92c-11.88,0-21.51-9.63-21.51-21.51s9.63-21.51,21.51-21.51h432.25c11.88,0,21.51,9.63,21.51,21.51s-9.63,21.51-21.51,21.51Z"/>
  <path class="cls-1" d="m489.17,494.93H124.13c-11.88,0-21.51-9.63-21.51-21.51s9.63-21.51,21.51-21.51h365.04c11.88,0,21.51,9.63,21.51,21.51s-9.63,21.51-21.51,21.51Z"/>
  <path class="cls-1" d="m489.17,349.98H169.82c-11.88,0-21.51-9.63-21.51-21.51s9.63-21.51,21.51-21.51h319.35c11.88,0,21.51,9.63,21.51,21.51s-9.63,21.51-21.51,21.51Z"/>
  <path class="cls-1" d="m489.17,132.56H169.82c-11.88,0-21.51-9.63-21.51-21.51s9.63-21.51,21.51-21.51h319.35c11.88,0,21.51,9.63,21.51,21.51s-9.63,21.51-21.51,21.51Z"/>
  <path class="cls-1" d="m489.17,277.51H22.83c-11.88,0-21.51-9.63-21.51-21.51s9.63-21.51,21.51-21.51h466.34c11.88,0,21.51,9.63,21.51,21.51s-9.63,21.51-21.51,21.51Z"/>
  <path class="cls-1" d="m489.17,422.46H22.83c-11.88,0-21.51-9.63-21.51-21.51s9.63-21.51,21.51-21.51h466.34c11.88,0,21.51,9.63,21.51,21.51s-9.63,21.51-21.51,21.51Z"/>
</svg>