<?xml version="1.0" encoding="UTF-8"?>
<svg id="Layer_1" data-name="Layer 1" xmlns="http://www.w3.org/2000/svg" viewBox="0 0 512 512">
  <defs>
    <style>
      .cls-1 {
        fill: #fff;
      }
    </style>
  </defs>
  <path class="cls-1" d="m497.17,164.66c-18.07-16.94-147.98-148.89-153.04-155.05-13.68,11.74-19.1,23.76-25.41,33.64-7.87,12.32-16.48,19.26-24.78,31.26-4.29,6.19-10.05,12.61-16.61,15.67-40.81,19.05-82.47,36.27-123,55.9-33.7,16.32-59.43,42.58-72.1,78.59-11.57,32.89-53.37,186.19-54.33,190.02-9.17,36.66,18.83,73.14,59.3,71.29,8.1-.37,223.16-72.07,226.72-73.61,27.09-11.74,41.44-34.61,51.77-61.18,7.35-18.91,15.86-37.38,22.68-56.48,9.2-25.74,24.98-46.43,44.4-64.69,13.87-13.04,28.11-25.71,41.49-39.26,4.89-4.95,27.85-21.46,22.91-26.09Zm-166.2,195.94c-8.99,18.02-44.73,29.81-44.73,29.81,0,0-183.49,80.07-192.83,64.51-6.78-11.29,60.17-75.29,83.02-99.21,9.84-10.3,20.19-19.75,31.79-27.39,5.43,2.25,11.37,3.5,17.62,3.5,25.42,0,46.02-20.61,46.02-46.02s-20.61-46.02-46.02-46.02-46.02,20.61-46.02,46.02c0,5.74,1.06,11.22,2.97,16.29-1.81,6.82-5.11,12.82-10.4,18.27-17.54,18.07-34.48,36.74-51.99,54.84-5.01,5.18-10.91,9.56-16.79,13.74-9.07,6.45-18.67,12.14-27.68,18.67-6.12,4.44-17.76,8.3-21.25,4.16-2.05-2.44,1.31-8.49,2.62-12.46,5.66-17.14,59.96-169.63,70.09-189.92,5.22-10.46,12.38-18.45,21.64-25.17,31.36-22.77,133.41-69.55,151.52-70.17,30.87,20.4,90.05,88.63,95.8,111.63-21.11,43.72-42.75,89.58-65.39,134.93Z"/>
</svg>