<?xml version="1.0" encoding="UTF-8"?>
<svg id="Layer_1" data-name="Layer 1" xmlns="http://www.w3.org/2000/svg" viewBox="0 0 512 512">
  <defs>
    <style>
      .cls-1 {
        fill: #fff;
      }

      .cls-2 {
        opacity: .55;
      }
    </style>
  </defs>
  <g class="cls-2">
    <rect class="cls-1" x="139.89" y="227.36" width="227.86" height="55.06" rx="27.17" ry="27.17"/>
    <g>
      <path class="cls-1" d="m377.49,131.64c-45,0-84.36,24.12-105.88,60.14h49.89c14.9-13.23,34.5-21.28,55.99-21.28,46.6,0,84.38,37.78,84.38,84.38s-37.78,84.38-84.38,84.38c-21.49,0-41.09-8.05-55.99-21.28h-49.89c21.51,36.02,60.88,60.14,105.88,60.14,68.07,0,123.25-55.18,123.25-123.25s-55.18-123.25-123.25-123.25Z"/>
      <path class="cls-1" d="m186.14,317.99c-14.9,13.23-34.5,21.28-55.99,21.28-46.6,0-84.38-37.78-84.38-84.38s37.78-84.38,84.38-84.38c21.49,0,41.09,8.05,55.99,21.28h49.89c-21.51-36.02-60.88-60.14-105.88-60.14-68.07,0-123.25,55.18-123.25,123.25s55.18,123.25,123.25,123.25c45,0,84.36-24.12,105.88-60.14h-49.89Z"/>
    </g>
  </g>
</svg>