<?xml version="1.0" encoding="UTF-8"?>
<svg id="Layer_1" data-name="Layer 1" xmlns="http://www.w3.org/2000/svg" viewBox="0 0 512 512">
  <defs>
    <style>
      .cls-1 {
        fill: #fff;
      }
    </style>
  </defs>
  <path class="cls-1" d="m481.11,4.43H31.91c-14.9,0-26.97,12.08-26.97,26.97v449.19c0,14.9,12.08,26.97,26.97,26.97h449.19c14.9,0,26.97-12.08,26.97-26.97V31.4c0-14.9-12.08-26.97-26.97-26.97Zm-14.85,438.45c0,12.63-10.24,22.86-22.86,22.86H69.63c-12.63,0-22.86-10.24-22.86-22.86V69.12c0-12.63,10.24-22.86,22.86-22.86h373.76c12.63,0,22.86,10.24,22.86,22.86v373.76Z"/>
  <path class="cls-1" d="m349.83,233.6h-70.92v-70.92c0-9.36-7.59-16.95-16.95-16.95h-10.89c-9.36,0-16.95,7.59-16.95,16.95v70.92h-70.92c-9.36,0-16.95,7.59-16.95,16.95v10.89c0,9.36,7.59,16.95,16.95,16.95h70.92v70.92c0,9.36,7.59,16.95,16.95,16.95h10.89c9.36,0,16.95-7.59,16.95-16.95v-70.92h70.92c9.36,0,16.95-7.59,16.95-16.95v-10.89c0-9.36-7.59-16.95-16.95-16.95Z"/>
</svg>