<?xml version="1.0" encoding="UTF-8"?>
<svg id="Layer_1" data-name="Layer 1" xmlns="http://www.w3.org/2000/svg" viewBox="0 0 512 512">
  <defs>
    <style>
      .cls-1 {
        fill: #fff;
      }
    </style>
  </defs>
  <path class="cls-1" d="m435.05,151.61h-53.03c.03-.89.04-1.79.04-2.69v-39.96c0-51.12-41.59-92.71-92.71-92.71h-71.06c-51.12,0-92.71,41.59-92.71,92.71v39.96c0,.9.02,1.8.04,2.69h-53.03c-16.24,0-29.41,13.17-29.41,29.41v285.65c0,16.24,13.17,29.41,29.41,29.41h362.45c16.24,0,29.41-13.17,29.41-29.41V181.02c0-16.24-13.17-29.41-29.41-29.41Zm-181.23,220.53c-30.73,0-55.64-24.91-55.64-55.64s24.91-55.64,55.64-55.64,55.64,24.91,55.64,55.64-24.91,55.64-55.64,55.64Zm88.24-223.22c0,.9-.02,1.8-.07,2.69h-176.35c-.05-.89-.07-1.79-.07-2.69v-39.96c0-29.07,23.65-52.71,52.71-52.71h71.06c29.07,0,52.71,23.65,52.71,52.71v39.96Z"/>
</svg>