<?xml version="1.0" encoding="UTF-8"?>
<svg id="Layer_1" data-name="Layer 1" xmlns="http://www.w3.org/2000/svg" viewBox="0 0 512 512">
  <defs>
    <style>
      .cls-1 {
        fill: #fff;
        opacity: .4;
      }
    </style>
  </defs>
  <polygon class="cls-1" points="446.95 224.81 398.55 185.1 398.55 248.42 273.31 248.42 273.31 123.85 336.63 123.85 296.92 75.46 257.22 27.06 217.51 75.46 177.8 123.85 241.12 123.85 241.12 248.42 109.09 248.42 109.09 185.1 60.69 224.81 12.29 264.51 60.69 304.22 109.09 343.93 109.09 280.61 241.12 280.61 241.12 413.32 177.8 413.32 217.51 461.72 257.22 510.11 296.92 461.72 336.63 413.32 273.31 413.32 273.31 280.61 398.55 280.61 398.55 343.93 446.95 304.22 495.35 264.51 446.95 224.81"/>
</svg>