<?xml version="1.0" encoding="UTF-8"?>
<svg id="Layer_1" data-name="Layer 1" xmlns="http://www.w3.org/2000/svg" viewBox="0 0 512 512">
  <defs>
    <style>
      .cls-1 {
        fill: #fff;
      }
    </style>
  </defs>
  <path class="cls-1" d="m491.89,242.13h-48.75c-7.61-36.25-39.77-63.48-78.28-63.48s-70.67,27.22-78.28,63.48H21.01c-9.4,0-17.02,7.62-17.02,17.02s7.62,17.02,17.02,17.02h265.79c7.99,35.75,39.89,62.47,78.05,62.47s70.06-26.73,78.05-62.47h48.99c9.4,0,17.02-7.62,17.02-17.02s-7.62-17.02-17.02-17.02Zm-127.04,62.57c-25.43,0-46.05-20.62-46.05-46.05s20.62-46.05,46.05-46.05,46.05,20.62,46.05,46.05-20.62,46.05-46.05,46.05Z"/>
  <path class="cls-1" d="m21.01,117.18h48.75c7.61,36.25,39.77,63.48,78.28,63.48s70.67-27.22,78.28-63.48h265.56c9.4,0,17.02-7.62,17.02-17.02s-7.62-17.02-17.02-17.02H226.1c-7.99-35.75-39.89-62.47-78.05-62.47s-70.06,26.73-78.05,62.47H21.01c-9.4,0-17.02,7.62-17.02,17.02s7.62,17.02,17.02,17.02Zm127.04-62.57c25.43,0,46.05,20.62,46.05,46.05s-20.62,46.05-46.05,46.05-46.05-20.62-46.05-46.05,20.62-46.05,46.05-46.05Z"/>
  <path class="cls-1" d="m21.01,431.13h110.75c7.61,36.25,39.77,63.48,78.28,63.48s70.67-27.22,78.28-63.48h203.56c9.4,0,17.02-7.62,17.02-17.02s-7.62-17.02-17.02-17.02h-203.79c-7.99-35.75-39.89-62.47-78.05-62.47s-70.06,26.73-78.05,62.47H21.01c-9.4,0-17.02,7.62-17.02,17.02s7.62,17.02,17.02,17.02Zm189.04-62.57c25.43,0,46.05,20.62,46.05,46.05s-20.62,46.05-46.05,46.05-46.05-20.62-46.05-46.05,20.62-46.05,46.05-46.05Z"/>
</svg>