<?xml version="1.0" encoding="UTF-8"?>
<svg id="Layer_1" data-name="Layer 1" xmlns="http://www.w3.org/2000/svg" viewBox="0 0 512 512">
  <defs>
    <style>
      .cls-1 {
        fill: #fff;
      }

      .cls-2 {
        opacity: .4;
      }
    </style>
  </defs>
  <g class="cls-2">
    <path class="cls-1" d="m389.02,193.61h0l-38.03-38.03s-19.26-19.26-28.29-28.29c-4.24-4.24-12.7-6.11-18.07-6.11H108.59c-11.05,0-20,8.95-20,20v230.33c0,11.05,8.95,20,20,20h295.6c11.05,0,20-8.95,20-20v-135c0-5.92-3.15-10.88-6.12-13.85-9.74-9.74-29.05-29.05-29.05-29.05Zm-19.55,165.01h-230.66c-10.79,0-19.55-8.4-19.55-18.76v-165.52c0-10.36,8.75-18.76,19.55-18.76h139.27c4.8,0,8.86,5.26,8.86,10.06v70.25c0,11.05,8.95,20,20,20,0,0,55.28.81,74.52.81,3.92,0,7.56,4.66,7.56,8.33v74.84c0,10.36-8.75,18.76-19.55,18.76Z"/>
    <g>
      <g>
        <rect class="cls-1" x="16.31" y="358.86" width="55.32" height="32.94" rx="6.36" ry="6.36"/>
        <rect class="cls-1" x="77.4" y="419.48" width="55.32" height="32.94" rx="6.36" ry="6.36" transform="translate(541.01 330.89) rotate(90)"/>
      </g>
      <g>
        <rect class="cls-1" x="380.77" y="419.48" width="55.32" height="32.94" rx="6.36" ry="6.36" transform="translate(-27.52 844.38) rotate(-90)"/>
        <rect class="cls-1" x="441.39" y="358.39" width="55.32" height="32.94" rx="6.36" ry="6.36"/>
      </g>
    </g>
    <g>
      <g>
        <rect class="cls-1" x="441.39" y="120.2" width="55.32" height="32.94" rx="6.36" ry="6.36" transform="translate(938.1 273.35) rotate(180)"/>
        <rect class="cls-1" x="380.3" y="59.58" width="55.32" height="32.94" rx="6.36" ry="6.36" transform="translate(331.91 484.01) rotate(-90)"/>
      </g>
      <g>
        <rect class="cls-1" x="76.94" y="59.58" width="55.32" height="32.94" rx="6.36" ry="6.36" transform="translate(180.64 -28.54) rotate(90)"/>
        <rect class="cls-1" x="16.31" y="120.67" width="55.32" height="32.94" rx="6.36" ry="6.36" transform="translate(87.94 274.28) rotate(180)"/>
      </g>
    </g>
  </g>
</svg>