<?xml version="1.0" encoding="UTF-8"?>
<svg id="Layer_1" data-name="Layer 1" xmlns="http://www.w3.org/2000/svg" viewBox="0 0 512 512">
  <defs>
    <style>
      .cls-1, .cls-2, .cls-3 {
        fill: #fff;
      }

      .cls-2 {
        opacity: .5;
      }

      .cls-3 {
        opacity: .75;
      }
    </style>
  </defs>
  <path class="cls-3" d="m254.89,226.36c25.88-26.55,62.03-43.05,102.03-43.05,16.79,0,32.9,2.91,47.86,8.25,1.53-8.37,2.34-17,2.34-25.81,0-78.69-63.79-142.47-142.47-142.47S122.17,87.06,122.17,165.74c0,6.99.51,13.85,1.48,20.57,9.43-1.96,19.19-3,29.2-3,40.01,0,76.15,16.5,102.03,43.05Z"/>
  <path class="cls-1" d="m216.78,299.97c-48.92-17.45-85.49-60.86-93.13-113.66-64.68,13.47-113.27,70.8-113.27,139.47,0,78.69,63.79,142.47,142.47,142.47,40.01,0,76.15-16.5,102.03-43.05-25.02-25.67-40.44-60.75-40.44-99.43,0-8.82.81-17.44,2.34-25.81Z"/>
  <path class="cls-2" d="m216.78,299.97c5.19-28.37,18.79-53.79,38.1-73.61-25.88-26.55-62.03-43.05-102.03-43.05-10.01,0-19.78,1.04-29.2,3,7.63,52.79,44.21,96.21,93.13,113.66Z"/>
  <path class="cls-1" d="m404.78,191.56c-10.41,56.86-54.56,101.91-110.93,113.66.97,6.72,1.48,13.58,1.48,20.57,0,38.68-15.42,73.75-40.44,99.43,25.88,26.55,62.03,43.05,102.03,43.05,78.69,0,142.47-63.79,142.47-142.47,0-61.89-39.47-114.56-94.61-134.22Z"/>
  <path class="cls-2" d="m254.89,226.36c20.5,21.04,34.55,48.39,38.96,78.86,56.38-11.74,100.53-56.8,110.93-113.66-14.96-5.34-31.07-8.25-47.86-8.25-40.01,0-76.15,16.5-102.03,43.05Z"/>
  <path class="cls-2" d="m293.85,305.22c-9.43,1.96-19.19,3-29.2,3-16.79,0-32.9-2.91-47.86-8.25-1.53,8.37-2.34,17-2.34,25.81,0,38.68,15.42,73.75,40.44,99.43,25.02-25.67,40.44-60.75,40.44-99.43,0-6.99-.51-13.85-1.48-20.57Z"/>
</svg>