<?xml version="1.0" encoding="UTF-8"?>
<svg id="Layer_1" data-name="Layer 1" xmlns="http://www.w3.org/2000/svg" viewBox="0 0 512 512">
  <defs>
    <style>
      .cls-1 {
        fill: #fff;
      }
    </style>
  </defs>
  <path class="cls-1" d="m65.83,442.3c-56.03,0-61.07-13.98-61.1-72.44-.05-101.96-.1-203.91.36-305.87C5.31,13.28,13.41,5.57,62.84,5.56c108.19-.03,216.38-.07,324.57.04,36.21.04,45.27,7.39,52.55,43.89,2.56,12.83,7.57,18.31,21.59,20.51,34.15,5.36,45.38,20.07,45.49,56.11.33,108.11.4,216.22-.04,324.33-.16,38.82-17.66,55.65-56.7,55.75-108.19.29-216.38.22-324.57.28-34.8,0-59.9-17.28-59.9-64.18ZM277.06,101.32c-54.93,0-107.04,1.07-159.12,1.07-12.14,0-13.41,15.29-13.51,23.56-1.33,106.31-1.06,212.65-2.17,318.97-.22,21.21,8.19,26.39,27.9,26.24,105.55-.84,211.12-.83,316.67-.23,18.71.1,24.05-7.48,23.99-24.97-.38-106.32-.62-212.66.3-318.97.21-23.85-11.16-28.67-30.76-26.71-17.55,1.75-37.94-2.97-36.63,27.23,0,63.34,2.45,183.54,1.53,198.75-24.04-25.43-42.9-45.38-61.47-65.02-21.99,20.87-64.78,66.56-66.73,65.02V101.32Zm126.71-49.71c0-15.99-11.29-16.24-25.82-16.24-102.85.94-205.72,1.76-308.57.59-27.2-.31-31.9,11.35-31.73,34.72.75,100.97-1.4,317.92,1.33,323.69,2.77,5.86,4.97,13.17,15.48,13.17,8.97,0,11.91-7.7,13.83-13.44,2.67-7.99.38-191.08.36-273.59,0-40.34,12.1-51.67,51.86-51.62,87.17.11,174.34.35,261.5.39,10.08,0,21.75-.35,21.75-17.67Z"/>
</svg>