<?xml version="1.0" encoding="UTF-8"?>
<svg id="Layer_1" data-name="Layer 1" xmlns="http://www.w3.org/2000/svg" viewBox="0 0 512 512">
  <defs>
    <style>
      .cls-1, .cls-2, .cls-3, .cls-4 {
        fill: #fff;
      }

      .cls-2 {
        opacity: .5;
      }

      .cls-3 {
        opacity: .75;
      }

      .cls-4 {
        opacity: .3;
      }
    </style>
  </defs>
  <rect class="cls-3" x="37.28" y="77.43" width="135.53" height="110.12"/>
  <rect class="cls-2" x="190.6" y="77.43" width="135.53" height="110.12"/>
  <rect class="cls-2" x="36.13" y="204.19" width="135.53" height="110.12"/>
  <rect class="cls-4" x="189.44" y="202.49" width="135.53" height="110.12"/>
  <rect class="cls-4" x="342.76" y="79.6" width="135.53" height="110.12"/>
  <rect class="cls-4" x="36.2" y="325.55" width="135.53" height="110.12"/>
  <path class="cls-1" d="m504.85,88.82c-.08-30.5-6.16-36.52-37.38-36.58-51.95-.1-103.9.39-155.85.47-88.82.14-177.64-.2-266.45.38-36.94.24-38.12,2.28-38.12,38.24,0,108.89.01,217.78,0,326.67,0,39.66,1.69,41.44,40.41,41.44,68.7,0,137.4,0,206.11,0,0-.12,0-.24,0-.36,72.06,0,144.12.09,216.18-.05,28.77-.06,35.59-6.9,35.58-36-.03-111.41-.19-222.82-.47-334.23ZM162.3,425.54H45.14v-94.6h117.17v94.6Zm0-122.09H45.14v-94.6h117.17v94.6Zm.53-122.76H45.66v-94.6h117.17v94.6Zm151.94,244.85h-117.17v-94.6h117.17v94.6Zm0-122.09h-117.17v-94.6h117.17v94.6Zm.81-122.76h-117.17v-94.6h117.17v94.6Zm151.66,244.85h-117.17v-94.6h117.17v94.6Zm0-122.09h-117.17v-94.6h117.17v94.6Zm0-122.71h-117.17v-94.6h117.17v94.6Z"/>
</svg>