<?xml version="1.0" encoding="UTF-8"?>
<svg id="Layer_1" data-name="Layer 1" xmlns="http://www.w3.org/2000/svg" viewBox="0 0 512 512">
  <defs>
    <style>
      .cls-1 {
        fill: #fff;
      }
    </style>
  </defs>
  <path class="cls-1" d="m100.1,499.84c0-35.16.59-69.42.59-111.12,1.21-21.02-5.19-29.6-25.5-29.6-56.56,0-68.11-20.31-68.11-67.54,0-92.31-1.09-131.27-1.09-210.38C6,29.8,36.33,7.33,87.9,7.31c112.43-.04,224.86-.09,337.3.02,46.9.05,77.63,27.1,79.46,74.76,2.66,69.17,2.3,138.46,3,207.7.36,35.64-33.91,71.7-76.01,71.7-54.7,0-113.15-1.7-150.34-1.7-12.59,0-35.03,8.1-46.62,18.99-35.97,33.75-109.97,106.41-122.58,119.02-9.79,9.79-12,4.91-12,2.03Z"/>
</svg>