<?xml version="1.0" encoding="UTF-8"?>
<svg id="Layer_1" data-name="Layer 1" xmlns="http://www.w3.org/2000/svg" viewBox="0 0 512 512">
  <defs>
    <style>
      .cls-1 {
        fill: #fff;
      }

      .cls-2 {
        opacity: .8;
      }
    </style>
  </defs>
  <g class="cls-2">
    <rect class="cls-1" x="150.57" y="177.97" width="40.66" height="245.65" rx="13.93" ry="13.93"/>
    <rect class="cls-1" x="319.16" y="177.97" width="40.66" height="245.65" rx="13.93" ry="13.93"/>
    <rect class="cls-1" x="234.86" y="177.97" width="40.66" height="245.65" rx="13.93" ry="13.93"/>
    <path class="cls-1" d="m473.01,89.72h-115.74v-24.93c0-30.59-24.8-55.39-55.39-55.39h-93.36c-30.59,0-55.39,24.8-55.39,55.39v24.93H37.38c-7.69,0-13.93,6.24-13.93,13.93v12.8c0,7.69,6.24,13.93,13.93,13.93h32.73v346.95c0,16.65,13.49,30.14,30.14,30.14h309.88c16.65,0,30.14-13.49,30.14-30.14V130.38h32.73c7.69,0,13.93-6.24,13.93-13.93v-12.8c0-7.69-6.24-13.93-13.93-13.93Zm-283.21-19.85c0-18.2,14.76-32.96,32.96-32.96h64.87c18.2,0,32.96,14.76,32.96,32.96v18.62h-130.8v-18.62Zm214.32,379.2c0,11.3-9.16,20.46-20.46,20.46H126.73c-11.3,0-20.46-9.16-20.46-20.46V151.05c0-11.3,9.16-20.46,20.46-20.46h256.93c11.3,0,20.46,9.16,20.46,20.46v298.02Z"/>
  </g>
</svg>