<?xml version="1.0" encoding="UTF-8"?>
<svg id="Layer_1" data-name="Layer 1" xmlns="http://www.w3.org/2000/svg" viewBox="0 0 512 512">
  <defs>
    <style>
      .cls-1 {
        fill: #fff;
        opacity: .4;
      }
    </style>
  </defs>
  <path class="cls-1" d="m475.86,131.07h-226.03v-63.56h-.06c-.62-9.35-8.39-16.75-17.9-16.75H24.92c-9.51,0-17.28,7.4-17.9,16.75h-.06v364.56h0c0,7.28,2.67,13.94,7.09,19.05.32.37.65.73.99,1.09.98,1.03,2.04,1.99,3.16,2.86.53.41,1.07.82,1.63,1.19.78.52,1.58,1.01,2.41,1.46,4.13,2.25,8.87,3.52,13.9,3.52h439.73c.5,0,1-.01,1.5-.04.99-.05,1.98-.15,2.94-.3,2.41-.37,4.73-1.03,6.91-1.96,10.47-4.43,17.82-14.8,17.82-26.88h0V160.25c0-16.11-13.06-29.17-29.17-29.17ZM26.97,262.92v-102.68c0-5.06,4.11-9.17,9.17-9.17h439.73c5.06,0,9.17,4.11,9.17,9.17v102.68H26.97Z"/>
</svg>