<?xml version="1.0" encoding="UTF-8"?>
<svg id="Layer_1" data-name="Layer 1" xmlns="http://www.w3.org/2000/svg" viewBox="0 0 512 512">
  <defs>
    <style>
      .cls-1 {
        fill: #fff;
        stroke: #221f20;
        stroke-miterlimit: 10;
      }

      .cls-2 {
        opacity: .55;
      }
    </style>
  </defs>
  <g class="cls-2">
    <path class="cls-1" d="m113.9,155.3c-6.37.75-11.55,5.5-12.81,11.8-11.68,58.19-23.47,117.73-35.76,177.17-4.46,21.57-8.61,43.52-16.46,63.92-2.94,7.63-14.81,19.72-24.49,16.86-7.4-2.18-9.91-14.71-8.83-21.03,6.05-35.36,46.26-214.2,47.65-220.83,5.42-25.77-1.62-27.08-17.06-28.32-10.73-.86-25.91,1.29-22.68-14.92,1.67-13.58,15.84-14.67,24.47-14.8,23.2-.36,27.18-5.56,32.26-20.81,6.95-20.85,19.85-59.94,30.71-72.46,15.03-17.32,49.27-27.01,68.06-19.14,4.31,1.8,10.17,5.82,8.45,13.97-1.9,9.03-7.7,11.76-12.82,12.69-40.11,7.28-49.08,18-58.66,66.26-3.27,16.47,1.81,18.73,41.4,18.67,4.7,0,11.02,2.6,10.98,11.65-.03,8.18-4.31,12.18-7.91,12.89-14.49,2.86-29.23,4.4-46.52,6.43Z"/>
    <path class="cls-1" d="m425.17,494.16l-54.53-54.53h131.99l-54.53,54.53c-6.33,6.33-16.6,6.33-22.94,0Z"/>
    <path class="cls-1" d="m367.81,118.92c-5.94-4.8-14.7-3.75-19.76,1.97l-69.3,78.34c-5.77,6.52-16.31,5.16-20.22-2.63l-30.48-60.59c-3.43-6.82-11.64-10.07-18.6-6.95-7.39,3.32-10.46,12.09-6.85,19.26l28.89,57.43c9.09,18.06,6.26,39.84-7.14,54.98l-62.96,71.18c-5.06,5.72-5.03,14.54.46,19.85,5.83,5.63,15.11,5.22,20.42-.79l66.96-75.69c5.26-5.95,14.87-4.7,18.44,2.39l35.02,69.61c3.43,6.82,11.64,10.07,18.6,6.95,7.39-3.32,10.46-12.09,6.85-19.26l-33.62-66.84c-8.53-16.96-5.88-37.41,6.7-51.62l68.31-77.22c5.31-6.01,4.59-15.27-1.71-20.37Z"/>
  </g>
</svg>