<?xml version="1.0" encoding="UTF-8"?>
<svg id="Layer_1" data-name="Layer 1" xmlns="http://www.w3.org/2000/svg" viewBox="0 0 512 512">
  <defs>
    <style>
      .cls-1 {
        fill: #fff;
      }
    </style>
  </defs>
  <path class="cls-1" d="m255.23,461.4c-71.78,0-143.56.09-215.34-.04-33.13-.06-34.46-1.54-34.46-33.89-.01-114.87.57-229.74-.52-344.6-.2-21.16,8.01-29.86,26.79-31.08,17.67-1.15,35.42-1.4,53.13-1.41,124.16-.08,248.32-.08,372.48.09,45.7.06,48.53,3.79,48.56,49.27.07,108.06.73,216.12,1.22,324.17.14,30.37-7.52,37.89-36.53,37.77-71.77-.3-143.55-.1-215.32-.1,0-.06,0-.11,0-.17ZM45.47,91.05v340.28c19.99-1.76,35.79-3.78,51.64-4.42,46.4-1.87,92.83-3.24,139.25-4.71,19.15-.61,32.8-3.97,20.58-28.59-3.84-7.73-2.86-18.25-2.87-27.49-.04-83.39.13-166.78.39-250.16.04-12.94-1.29-24.78-17.9-24.83-63.2-.19-126.41-.08-191.1-.08Z"/>
</svg>