<?xml version="1.0" encoding="UTF-8"?>
<svg id="Layer_1" data-name="Layer 1" xmlns="http://www.w3.org/2000/svg" viewBox="0 0 512 512">
  <defs>
    <style>
      .cls-1 {
        fill: #fff;
      }
    </style>
  </defs>
  <path class="cls-1" d="m125.9,49.56c12.18,0,24.6-1.4,36.44.6,5.87.99,14.68,8.04,14.93,12.73.28,5.29-7.28,15.49-11.94,15.81-24.82,1.69-49.86,1.79-74.67.14-3.75-.25-8.43-12.42-9.16-19.45-.29-2.79,8.68-8.65,14-9.48,9.92-1.55,20.24-.45,30.4-.45,0,.03,0,.07,0,.1Z"/>
  <path class="cls-1" d="m127.52,229.72c-10.84,0-21.85,1.12-32.45-.48-5.21-.79-14.03-7.3-13.61-10.04,1.05-6.87,6.14-18.43,10.14-18.66,24.86-1.44,49.93-1.06,74.78.79,4.35.32,10.53,10.24,11.02,16.14.3,3.64-8.17,10.8-13.39,11.56-11.94,1.76-24.31.55-36.5.55v.14Z"/>
  <path class="cls-1" d="m56.22,230.58c2.09,19.34-11.63,22.99-26.81,23.66-17.89.79-25.37-10.13-25.91-26.77-.61-18.74,7.38-27.29,24.71-27.22,18.75.08,27.84,9.59,28,30.33Z"/>
  <path class="cls-1" d="m128.18,127.06c11.53,0,23.29-1.36,34.5.55,5.94,1.01,10.93,7.71,16.35,11.84-5.07,4.3-9.94,12.02-15.24,12.33-23.64,1.38-47.45,1.45-71.09.08-5.39-.31-10.34-8.26-15.5-12.69,5.46-4.06,10.51-10.65,16.48-11.65,11.22-1.88,22.97-.54,34.5-.54v.08Z"/>
  <path class="cls-1" d="m10.59,128.01c14.54,3.49,30.95,4.37,43.09,12.07,3.94,2.5.54,26.64-6.55,33.9-6.29,6.44-26.16,8.42-33.29,3.14-14.31-10.61-11.85-28.5-3.24-49.11Z"/>
  <path class="cls-1" d="m58.05,98.11c-12.86,0-20.98,1-28.73-.28-7.69-1.27-20.83-3.87-21.43-7.57-1.98-12.12-2.02-26.05,2.31-37.29,4.07-10.58,36.95-4.22,41.26,8.17,3.65,10.48,4.1,22.09,6.59,36.97Z"/>
  <g>
    <path class="cls-1" d="m95.4,450.75c1.09-10.2,6.91-15.06,14.12-18.03,9.35-3.86,13.72-10.8,15.05-20.55,1.28-9.38,2.62-18.76,4.41-28.06,7.16-37.23,56.14-65.57,85.25-73.83,12.07-3.43,22.27-1.67,32.07,5.99,7.33,5.73,15.03,11.03,22.89,15.98,8.41,5.29,12,12.96,12.03,22.61.07,24.8-6.8,46.16-26.78,62.68-28.71,23.74-59.7,40.93-97.56,41.21-20.75.15-40.78-5.12-61.48-7.99Z"/>
    <path class="cls-1" d="m315.44,341.25c-3.04-3.13-43.2-51.58-50.98-59.89-1.92-5.24,190.08-140.57,217.38-158.76,20.75-13.83,28.93,4.11,20.13,15.37-13.18,16.88-172.86,190.56-186.53,203.28Z"/>
  </g>
</svg>