<?xml version="1.0" encoding="UTF-8"?>
<svg id="Layer_1" data-name="Layer 1" xmlns="http://www.w3.org/2000/svg" viewBox="0 0 512 512">
  <defs>
    <style>
      .cls-1 {
        fill: #fff;
      }
    </style>
  </defs>
  <path class="cls-1" d="m416.24,2.93c-79.61.72-159.57-2.41-238.73,4.16-60.4,5.02-114.65,83.35-105.94,139.41,11.33,72.88,74.13,126.63,148.17,126.79,19.03.04,32.63-.35,57.04-.35,16.54,0,29.76.87,29.76,10.74v201.93c0,9.83,7.97,17.81,17.81,17.81s17.81-7.97,17.81-17.81V52.1c2.66-12.49,10.31-19.56,29.58-20.4,24.65-1.08,32.78,8.55,31.94,31.14-.05,1.32,1.13,422.79,1.13,422.79,0,9.83,7.97,17.81,17.81,17.81s17.81-7.97,17.81-17.81V65.47c.08-10.75.19-21.5.33-32.25.26-19.03-4.53-30.47-24.52-30.29Z"/>
</svg>