<?xml version="1.0" encoding="UTF-8"?>
<svg id="Layer_1" data-name="Layer 1" xmlns="http://www.w3.org/2000/svg" viewBox="0 0 512 512">
  <defs>
    <style>
      .cls-1 {
        fill: #fff;
      }
    </style>
  </defs>
  <path class="cls-1" d="m7.63,167.89C86.61,115.48,162.9,64.28,240.08,14.48c8-5.16,24.29-6.71,31.68-1.97,77.95,50.03,154.88,101.68,236.35,155.7-12.2,10.94-168.32,120.56-237.49,166.1-5.96,3.92-18.39,5.08-23.87,1.46C170.03,285.1,12.18,174.17,7.63,167.89Z"/>
  <path class="cls-1" d="m3.88,326.6c23.47-16.63,42.1-31.87,62.78-43.39,7.19-4.01,21.34-1.96,29.06,2.74,35.33,21.52,69.52,44.93,104.08,67.74,4.84,3.19,9.29,6.97,14.09,10.22q42.94,29.04,86.53-.5c36.39-24.57,73.46-48.17,109.11-73.78,17.64-12.67,31.32-11.15,48.99.4,15.17,9.91,23.24,15.89,34.9,23.79,12.71,8.62,14.5,16.79.49,26.63-73.24,51.45-146.52,102.86-219.08,155.26-16.79,12.12-29.27,5.66-42.47-3.76C171.66,448.6,21.54,339.88,3.88,326.6Z"/>
</svg>