<?xml version="1.0" encoding="UTF-8"?>
<svg id="Layer_1" data-name="Layer 1" xmlns="http://www.w3.org/2000/svg" viewBox="0 0 512 512">
  <defs>
    <style>
      .cls-1 {
        fill: #fff;
      }
    </style>
  </defs>
  <path class="cls-1" d="m455.65,454.85c-38-30.5-75.77-59.47-111.94-90.33-23.22-19.81-21.79-48.78,1.27-67.95,32.01-26.6,64.59-52.51,96.47-79.27,10.59-8.89,18.69-8.77,26.56,2.66,51.41,74.66,53.78,156.23-12.36,234.9Z"/>
  <path class="cls-1" d="m3.52,95.79c29.75,10.38,51.02-2.99,73.05-17.16,27.99-18.01,58.92-25.52,92.3-19.34,42.46,7.85,67.56,41.88,62.46,84.7-2.68,22.54-38.26,50.62-68.82,49.51-22.16-.81-47.36-2.93-65.37-14.06-30.94-19.12-57.48-45.54-85.46-69.38-3.91-3.34-5.5-9.44-8.17-14.26Z"/>
  <path class="cls-1" d="m372.6,161.78c-31.53,0-63.09-.68-94.6.21-25.57.73-19.6-18.77-21.55-32.5-2.23-15.79,5.11-23.64,21.86-23.54,61.72.38,123.45.05,185.18.18,6.66.01,14.38-.6,19.75,2.42,9.01,5.06,20.3,11.26,23.79,19.81,5.26,12.9-4.59,23.26-16.6,28.24-7.8,3.23-16.76,4.79-25.24,4.95-30.85.57-61.72.22-92.59.22Z"/>
  <path class="cls-1" d="m308.28,308.19c1.04,2.98,1.47,3.61,1.44,4.22-2.27,52.55-.7,43.87-44.05,44.17-55.64.38-111.28.11-166.92.06-6.02,0-13.89,1.95-17.7-1.09-8.79-6.99-20.01-15.73-21.64-25.25-1.02-5.97,13.45-20.96,21.19-21.13,76.15-1.62,152.34-.98,227.68-.98Z"/>
</svg>