<?xml version="1.0" encoding="UTF-8"?>
<svg id="Layer_1" data-name="Layer 1" xmlns="http://www.w3.org/2000/svg" viewBox="0 0 512 512">
  <defs>
    <style>
      .cls-1 {
        fill: #fff;
      }
    </style>
  </defs>
  <g>
    <rect class="cls-1" x="50.51" y="362.55" width="145.21" height="145.21" rx="14" ry="14"/>
    <path class="cls-1" d="m181.72,183.4h-117.21c-7.73,0-14,6.27-14,14v117.21c0,7.73,6.27,14,14,14h117.21c7.73,0,14-6.27,14-14v-117.21c0-7.73-6.27-14-14-14Zm-14.87,103.06c0,7.32-5.96,13.28-13.28,13.28h-60.92c-7.32,0-13.28-5.96-13.28-13.28v-60.92c0-7.32,5.96-13.28,13.28-13.28h60.92c7.32,0,13.28,5.96,13.28,13.28v60.92Z"/>
    <path class="cls-1" d="m181.72,4.24h-117.21c-7.73,0-14,6.27-14,14v117.21c0,7.73,6.27,14,14,14h117.21c7.73,0,14-6.27,14-14V18.24c0-7.73-6.27-14-14-14Zm-14.87,103.06c0,7.32-5.96,13.28-13.28,13.28h-60.92c-7.32,0-13.28-5.96-13.28-13.28v-60.92c0-7.32,5.96-13.28,13.28-13.28h60.92c7.32,0,13.28,5.96,13.28,13.28v60.92Z"/>
  </g>
  <path class="cls-1" d="m282.91,54.48h170.87c-21.48,20.63-40.56,38.97-60.18,57.81,63.24,69.84,97.7,146.94,45.4,232.9-45.3,74.44-147.08,114.52-148.91,112.24,14.54-12.75,66.41-66.48,77.46-83.39,41.51-63.53,37.77-139.77-6.87-198.03-10.91-14.24-19.85-11.55-30.22,1.46-12.42,15.59-46.77,53.32-46.77,53.32,0,0-.77-119.48-.77-176.32Z"/>
</svg>