<?xml version="1.0" encoding="UTF-8"?>
<svg id="Layer_1" data-name="Layer 1" xmlns="http://www.w3.org/2000/svg" viewBox="0 0 512 512">
  <defs>
    <style>
      .cls-1 {
        fill: #fff;
      }

      .cls-2 {
        opacity: .4;
      }
    </style>
  </defs>
  <g class="cls-2">
    <path class="cls-1" d="m467.9,54.54H45.12c-17.52,0-31.72,14.2-31.72,31.71v343.16c0,17.52,14.2,31.72,31.72,31.72h422.78c17.52,0,31.71-14.2,31.71-31.72V86.25c0-17.52-14.2-31.71-31.71-31.71Zm-6.2,337.69c0,17.52-14.2,31.71-31.72,31.71H83.04c-17.52,0-31.72-14.2-31.72-31.71V123.44c0-17.52,14.2-31.72,31.72-31.72h346.94c17.52,0,31.72,14.2,31.72,31.72v268.79Z"/>
    <path class="cls-1" d="m410.58,366.82c-4.71-8.33-68.55-122.37-68.55-122.37l-72.81,65.71-88.31-109.53s-64.69,128.27-86.46,170.92c-1.69,3.32-1.98,4.38-1.98,6.28,0,6.71,5.44,12.14,12.14,12.14h298.1c6.71,0,11.9-5.3,12.14-12.14.14-3.81-1.46-6.05-4.26-11.01Z"/>
  </g>
</svg>