<?xml version="1.0" encoding="UTF-8"?>
<svg id="Layer_1" data-name="Layer 1" xmlns="http://www.w3.org/2000/svg" viewBox="0 0 512 512">
  <defs>
    <style>
      .cls-1 {
        fill: #fff;
        opacity: .4;
      }
    </style>
  </defs>
  <path class="cls-1" d="m484.51,144.31c-6.04-6.04-15.42-15.42-23.41-23.41-.81-1.26-1.76-2.45-2.86-3.55l-84.01-84.01c-1.1-1.1-2.3-2.05-3.55-2.86-5.82-5.82-11.65-11.65-16.04-16.04-4.04-4.04-10.8-8.33-18.85-8.33h-183.83c-15.04,0-27.23,12.19-27.23,27.23v213.26H34.68c-9.45,0-17.12,7.66-17.12,17.12v223.27c0,9.45,7.66,17.12,17.12,17.12h223.27c9.45,0,17.12-7.66,17.12-17.12v-23.89h190.53c15.04,0,27.23-12.19,27.23-27.23V168.91c0-7.31-2.55-18.84-8.32-24.6Zm-131.45-67.46l70.41,70.41h-70.41v-70.41Zm92.92,317.84c0,14.7-11.44,26.61-25.55,26.61h-145.37v-157.6c0-9.45-7.66-17.12-17.12-17.12h-88.45V80.61c0-14.7,11.44-26.61,25.55-26.61h101.91c3.82,0,8.41,2.9,10.37,6.64v111.02c0,11.81,9.57,21.37,21.37,21.37h2.99c.16,0,.31-.02.47-.02h100.25c6.5.07,13.58,5.56,13.58,12.05v189.64Z"/>
</svg>