<?xml version="1.0" encoding="UTF-8"?>
<svg id="Layer_1" data-name="Layer 1" xmlns="http://www.w3.org/2000/svg" viewBox="0 0 512 512">
  <defs>
    <style>
      .cls-1 {
        fill: #fff;
      }
    </style>
  </defs>
  <path class="cls-1" d="m498.29,77.72h-78c-5.15,0-9.32,4.17-9.32,9.32v34.25h-110.29c-7-17.85-24.36-30.49-44.69-30.49s-37.69,12.65-44.69,30.49h-110.29v-34.25c0-5.15-4.17-9.32-9.32-9.32H13.71c-5.15,0-9.32,4.17-9.32,9.32v78c0,5.15,4.17,9.32,9.32,9.32h78c5.15,0,9.32-4.17,9.32-9.32v-13.25h79.11c-31.24,28.61-54.41,67.25-67.81,113.63-10.55,36.5-12.12,67.25-12.32,78.57h-37.51c-5.19,0-9.4,4.21-9.4,9.4v78.7c0,5.19,4.21,9.4,9.4,9.4h78.7c5.19,0,9.4-4.21,9.4-9.4v-78.7c0-5.19-4.21-9.4-9.4-9.4h-17.17c.23-10.29,1.78-39.09,11.56-72.6,14.52-49.79,40.05-88.22,75.98-114.45,7.16,17.51,24.35,29.86,44.44,29.86s37.28-12.35,44.44-29.86c35.93,26.23,61.46,64.66,75.98,114.45,9.78,33.52,11.33,62.31,11.56,72.6h-17.17c-5.19,0-9.4,4.21-9.4,9.4v78.7c0,5.19,4.21,9.4,9.4,9.4h78.7c5.19,0,9.4-4.21,9.4-9.4v-78.7c0-5.19-4.21-9.4-9.4-9.4h-37.51c-.2-11.31-1.77-42.06-12.32-78.57-13.4-46.39-36.57-85.03-67.81-113.63h79.11v13.25c0,5.15,4.17,9.32,9.32,9.32h78c5.15,0,9.32-4.17,9.32-9.32v-78c0-5.15-4.17-9.32-9.32-9.32ZM131.2,372.28v40.91c0,4.92-4,8.91-8.92,8.91h-40.91c-4.92,0-8.92-4-8.92-8.91v-40.91c0-4.92,4-8.91,8.92-8.91h40.91c4.92,0,8.92,4,8.92,8.91Zm308.33,0v40.91c0,4.92-4,8.91-8.92,8.91h-40.91c-4.92,0-8.92-4-8.92-8.91v-40.91c0-4.92,4-8.91,8.92-8.91h40.91c4.92,0,8.92,4,8.92,8.91Z"/>
</svg>