<?xml version="1.0" encoding="UTF-8"?>
<svg id="Layer_1" data-name="Layer 1" xmlns="http://www.w3.org/2000/svg" viewBox="0 0 512 512">
  <defs>
    <style>
      .cls-1 {
        fill: #fff;
      }
    </style>
  </defs>
  <path class="cls-1" d="m4.61,455.39c0-8.21,0-16.51,0-24.81,0-114.25-.02-228.49,0-342.74,0-31.26,6.06-37.99,35.92-37.88,72.68.25,145.35,1.06,218.02,1.34,69.35.26,138.71.12,208.06.2,31.59.03,39.86,7.46,39.96,38.23.39,113.36.1,226.72.81,340.08.13,21.24-7.53,32.44-29.06,32.25-154.82-1.31-309.64-2.65-464.45-4.08-2.32-.02-4.64-1.25-9.27-2.58Zm123.31-22.13c38.95-1.43,43.09-6.95,37.66-46.61-4.2-30.68,4.8-49.35,24.34-50.47,20.61-1.18,37.96,20.6,38.19,47.98.08,10.24-2.57,21.56.95,30.39,3.26,8.18,13.11,13.69,20.06,20.38,3.13-7.23,9.42-14.72,8.86-21.65-2.84-35.25,2.55-42.64,37.4-44.98,9.28-.62,18.62-.48,27.93-.64,46.24-.78,48.94,2.14,52.36,47.8.5,6.7,7.23,12.93,11.08,19.37,7.82-5.2,18.89-8.72,22.58-16.03,4.19-8.29,2.06-19.96,2.16-30.17.5-49.16,8.93-56,54.56-44.07,1.21.32,2.87-1.11,5.04-2.04v-32.05c-9.82-1.01-18.81-2.04-27.81-2.83-12.59-1.11-27.05,1.47-37.31-4-11.34-6.05-27.03-20.42-25.96-29.34,1.4-11.56,15.96-23.98,27.8-30.93,8.19-4.81,21.4-1.52,32.32-.92,31.75,1.74,37.09-4.78,28.83-36.27-57.16,3.41-57.75,2.82-57.75-58.2,0-19.23,0-38.46,0-57.04h-38.59c0,3.95-.59,6.59.09,8.84,10.46,35-.18,50.58-35.33,51.05-16.08.21-33.17,3.25-47.97-1.2-12.96-3.89-26.01-14.62-33.75-25.97-3.8-5.58,4.35-19.42,7.79-32.09h-35.43c0,25.79.66,51.26-.19,76.68-.84,24.96-18.55,45.64-37.75,43.19-24.31-3.11-26.76-22.22-26.61-42.24.19-25.98.05-51.97.05-77.87h-37.05c0,6.97.08,12.07-.01,17.16-.6,34.26-8.34,42.08-41.97,42.39-10.16.09-21.54-2.74-30.09,1.02-6.52,2.87-11.07,13.65-12.97,21.75-.55,2.36,11.45,11.43,17.04,10.87,27.61-2.8,43.02,7.18,46.67,34.68,1.67,12.59.99,25.55.82,38.34q-.88,68.36-64.48,80.7c-3.02,28.64,2.22,33.78,32.05,31.45,48.2-3.77,51.84-.49,52.96,47.27.12,5.02.86,10.03,1.42,16.29Z"/>
  <path class="cls-1" d="m288.77,258.94c0-17-.77-34.05.21-50.99,1.07-18.55,13.14-28.46,30.4-26.4,15.8,1.89,31.37,7.53,30.78,29.68-.77,28.91.37,57.88-.24,86.8-.53,24.99-13.23,37.41-35.3,37.18-24.69-.26-25.36-17.5-25.39-35.42-.02-13.62,0-27.23,0-40.85-.15,0-.3,0-.46,0Z"/>
  <path class="cls-1" d="m193.46,310.9c-15.74-3.95-33.98-5.53-49.33-13.08-23.14-11.38-24.28-39.76-.58-46.09,29.38-7.84,62-4.99,93.04-3.39,5.59.29,14.83,17.08,14.33,25.78-.58,9.88-8.05,22.99-16.44,27.87-10.92,6.35-25.69,5.97-41.02,8.92Z"/>
</svg>