<?xml version="1.0" encoding="UTF-8"?>
<svg id="Layer_1" data-name="Layer 1" xmlns="http://www.w3.org/2000/svg" viewBox="0 0 512 512">
  <defs>
    <style>
      .cls-1 {
        fill: #fff;
      }
    </style>
  </defs>
  <path class="cls-1" d="m90.2,156.6c-12.37,61.51-24.84,124.65-37.87,187.67-4.46,21.57-8.61,43.52-16.46,63.92-2.94,7.63-16.03,11.36-24.49,16.86-3.14-7.04-9.91-14.71-8.83-21.03,6.05-35.36,14.06-70.37,21.28-105.53,6.58-32.04,12.84-64.14,19.61-96.13,1.39-6.57,4.26-12.87,6.76-19.17,5.77-14.54-1.62-27.08-17.06-28.32-10.73-.86-25.91,1.29-22.68-14.92,1.31-6.56,15.84-14.67,24.47-14.8,23.2-.36,30.34-13.07,36.28-32.59,6.39-21.03,15.87-41.49,26.7-60.68,9.4-16.65,49.27-27.01,68.06-19.14,4.31,1.8,9.44,10.11,8.45,13.97-1.31,5.13-7.7,11.76-12.82,12.69-40.11,7.28-58.66,26.37-58.66,66.26,0,6.27,10.7,14.67,18.26,18.15,6.4,2.95,15.77-1.27,23.14.52,4.57,1.11,10.26,7.13,10.98,11.65.63,3.97-4.31,12.18-7.91,12.89-17.38,3.43-35.14,4.96-57.22,7.72Z"/>
  <path class="cls-1" d="m371.61,131.87c-20.69,26.1-40.36,53.1-62.4,78-16.27,18.38-24.34,35.87-11.03,59.13,9.84,17.19,19.54,34.62,27.13,52.84,3.61,8.67,3.19,19.54,2.3,29.2-.24,2.57-11.26,7.5-13.4,5.95-9.14-6.65-19.14-14.02-24.49-23.55-8.43-15.01-12.91-32.18-19.95-48.05-7.09-15.98-17.43-16.01-28.38-1.51-15.45,20.46-30.23,41.67-47.84,60.13-6.75,7.07-20.42,7.85-31.23,10.16-.9.19-7.32-12.02-5.51-14.84,10.04-15.65,21.4-30.53,33.13-45.01,13.7-16.92,32.3-31.32,40.93-50.36,5.37-11.84-1.94-30.9-6.93-45.57-5.69-16.73-16.62-31.68-22.3-48.42-2.7-7.95,1.5-18.24,2.57-27.47,9.14,3.92,22.08,5.34,26.64,12.27,9.17,13.96,12.77,31.43,20.64,46.42,4.37,8.33,12.29,19.7,19.4,20.3,6.99.58,15.84-9.93,22.36-16.97,16.29-17.59,30.91-36.79,47.95-53.58,5.47-5.4,16.37-5.3,24.79-7.71,1.87,2.88,3.74,5.76,5.61,8.65Z"/>
  <path class="cls-1" d="m425.17,494.16l-54.53-54.53h131.99l-54.53,54.53c-6.33,6.33-16.6,6.33-22.94,0Z"/>
</svg>