<?xml version="1.0" encoding="UTF-8"?>
<svg id="Layer_1" data-name="Layer 1" xmlns="http://www.w3.org/2000/svg" viewBox="0 0 512 512">
  <defs>
    <style>
      .cls-1 {
        fill: #fff;
      }
    </style>
  </defs>
  <path class="cls-1" d="m399.14,420.83c-58.33,0-54.21,5.43-72.77-39.04-27.2-65.19-18.48-65.32-67.62-65.32-10.46-.02-50.93-.32-61.39-.3-54.59.06-41.26-7.99-65.84,44.03-3.45,7.29-5.97,15.02-9.1,22.47-18.24,43.44-12.58,38.16-72.53,38.16,2.12-8.63,88.36-227.55,128.17-329.12,8.94-22.8,22.55-29.45,45.65-29.65,29.57,0,39.16,5.71,48.5,29.61,39.98,102.37,125.25,321.45,126.94,329.15ZM229.71,118.27c-1.04-2.98-8.26-2.57-9.47.35-25.13,60.92-37.83,100.08-58.26,154.15h120.35c-18.14-53.25-31.88-94.92-52.62-154.51Z"/>
  <path class="cls-1" d="m445.28,503.43c-8.28,0-15-6.72-15-15V27.06c0-8.28,6.72-15,15-15s15,6.72,15,15v461.37c0,8.28-6.72,15-15,15Z"/>
</svg>