<?xml version="1.0" encoding="UTF-8"?>
<svg id="Layer_1" data-name="Layer 1" xmlns="http://www.w3.org/2000/svg" viewBox="0 0 512 512">
  <defs>
    <style>
      .cls-1 {
        fill: #fff;
      }
    </style>
  </defs>
  <path class="cls-1" d="m254.86,7.55c118.77-12.34,253.56,106.77,250.11,255.97-2.93,126.56-120.09,245.66-251.73,241.71C119.54,501.21,5.43,390.25,6.97,254.68,8.7,102.99,141.65-1.99,254.86,7.55ZM50.91,270.99c-.25,29.41,10.59,71.62,40.86,108.15,14.55,17.56,24.45,19.45,41.59,1.56,78.76-82.2,158.61-163.36,238.86-244.09,27.92-28.09,28.73-36.3-5.75-56.84-66.6-39.68-137.38-44.11-204.61-7.32-69.23,37.88-111.44,97.8-110.95,198.54Z"/>
</svg>