<?xml version="1.0" encoding="UTF-8"?>
<svg id="Layer_1" data-name="Layer 1" xmlns="http://www.w3.org/2000/svg" viewBox="0 0 512 512">
  <defs>
    <style>
      .cls-1 {
        fill: #fff;
        stroke: #231f20;
        stroke-miterlimit: 10;
      }
    </style>
  </defs>
  <path class="cls-1" d="m476.28,6.55H31.35c-14.67,0-26.57,11.9-26.57,26.57v444.93c0,14.67,11.9,26.57,26.57,26.57h444.93c14.67,0,26.57-11.9,26.57-26.57V33.12c0-14.67-11.9-26.57-26.57-26.57Zm-33.79,456.26h-118.62v-121.27c0-9.37-7.59-16.96-16.96-16.96h-105.84c-9.37,0-16.96,7.59-16.96,16.96v121.27h-118.97c-10.25,0-18.55-8.31-18.55-18.55v-118.8h121.23c9.37,0,16.96-7.59,16.96-16.96v-105.84c0-9.37-7.59-16.96-16.96-16.96H46.59v-118.8c0-10.25,8.31-18.55,18.55-18.55h118.97v121.19c0,9.37,7.59,16.96,16.96,16.96h105.84c9.37,0,16.96-7.59,16.96-16.96V48.35h118.62c10.25,0,18.55,8.31,18.55,18.55v118.8h-121.23c-9.37,0-16.96,7.59-16.96,16.96v105.84c0,9.37,7.59,16.96,16.96,16.96h121.23v118.8c0,10.25-8.31,18.55-18.55,18.55Z"/>
</svg>