<?xml version="1.0" encoding="UTF-8"?>
<svg id="Layer_1" data-name="Layer 1" xmlns="http://www.w3.org/2000/svg" viewBox="0 0 512 512">
  <defs>
    <style>
      .cls-1 {
        fill: #fff;
      }
    </style>
  </defs>
  <path class="cls-1" d="m498.34,117.57V40.54c0-16.62-13.48-30.1-30.1-30.1h-77.02c-16.62,0-30.1,13.48-30.1,30.1v18.82c-7.56-1.53-15.38-2.33-23.39-2.33h-165.06c-8.01,0-15.83.81-23.39,2.33v-18.82c0-16.62-13.48-30.1-30.1-30.1H42.15c-16.62,0-30.1,13.48-30.1,30.1v77.02c0,16.62,13.48,30.1,30.1,30.1h16.2c-2,8.59-3.06,17.54-3.06,26.74v165.06c0,9.2,1.06,18.15,3.06,26.74h-16.2c-16.62,0-30.1,13.48-30.1,30.1v77.02c0,16.62,13.48,30.1,30.1,30.1h77.02c16.62,0,30.1-13.48,30.1-30.1v-18.82c7.56,1.53,15.38,2.33,23.39,2.33h165.06c8.01,0,15.83-.81,23.39-2.33v18.82c0,16.62,13.48,30.1,30.1,30.1h77.02c16.62,0,30.1-13.48,30.1-30.1v-77.02c0-16.62-13.48-30.1-30.1-30.1h-16.2c2-8.59,3.06-17.54,3.06-26.74v-165.06c0-9.2-1.06-18.15-3.06-26.74h16.2c16.62,0,30.1-13.48,30.1-30.1Zm-443.68.35c-7.1,0-12.86-5.76-12.86-12.86v-52.01c0-7.1,5.76-12.86,12.86-12.86h52.01c7.1,0,12.86,5.76,12.86,12.86v52.01c0,7.1-5.76,12.86-12.86,12.86h-52.01Zm64.87,342.9c0,7.1-5.76,12.86-12.86,12.86h-52.01c-7.1,0-12.86-5.76-12.86-12.86v-52.01c0-7.1,5.76-12.86,12.86-12.86h52.01c7.1,0,12.86,5.76,12.86,12.86v52.01Zm241.59-64.52v17.46c-9,3.25-18.7,5.03-28.81,5.03h-154.21c-10.12,0-19.82-1.78-28.81-5.03v-17.46c0-16.62-13.48-30.1-30.1-30.1h-19.51c-4.07-9.92-6.33-20.78-6.33-32.17v-154.21c0-11.39,2.26-22.24,6.33-32.17h19.51c16.62,0,30.1-13.48,30.1-30.1v-17.46c9-3.25,18.7-5.03,28.81-5.03h154.21c10.12,0,19.82,1.78,28.81,5.03v17.46c0,16.62,13.48,30.1,30.1,30.1h19.51c4.07,9.92,6.33,20.78,6.33,32.17v154.21c0,11.39-2.26,22.24-6.33,32.17h-19.51c-16.62,0-30.1,13.48-30.1,30.1Zm94.62-.35c7.1,0,12.86,5.76,12.86,12.86v52.01c0,7.1-5.76,12.86-12.86,12.86h-52.01c-7.1,0-12.86-5.76-12.86-12.86v-52.01c0-7.1,5.76-12.86,12.86-12.86h52.01Zm0-278.03h-52.01c-7.1,0-12.86-5.76-12.86-12.86v-52.01c0-7.1,5.76-12.86,12.86-12.86h52.01c7.1,0,12.86,5.76,12.86,12.86v52.01c0,7.1-5.76,12.86-12.86,12.86Z"/>
</svg>